G04 #@! TF.GenerationSoftware,KiCad,Pcbnew,6.0.9+dfsg-1*
G04 #@! TF.CreationDate,2023-03-25T11:37:48-04:00*
G04 #@! TF.ProjectId,fox,666f782e-6b69-4636-9164-5f7063625858,v3.1*
G04 #@! TF.SameCoordinates,Original*
G04 #@! TF.FileFunction,Copper,L1,Top*
G04 #@! TF.FilePolarity,Positive*
%FSLAX46Y46*%
G04 Gerber Fmt 4.6, Leading zero omitted, Abs format (unit mm)*
G04 Created by KiCad (PCBNEW 6.0.9+dfsg-1) date 2023-03-25 11:37:48*
%MOMM*%
%LPD*%
G01*
G04 APERTURE LIST*
G04 #@! TA.AperFunction,ComponentPad*
%ADD10C,1.600000*%
G04 #@! TD*
G04 #@! TA.AperFunction,ComponentPad*
%ADD11O,1.600000X1.600000*%
G04 #@! TD*
G04 #@! TA.AperFunction,ComponentPad*
%ADD12C,1.905000*%
G04 #@! TD*
G04 #@! TA.AperFunction,ComponentPad*
%ADD13R,1.600000X1.600000*%
G04 #@! TD*
G04 #@! TA.AperFunction,ComponentPad*
%ADD14O,1.700000X1.700000*%
G04 #@! TD*
G04 #@! TA.AperFunction,ComponentPad*
%ADD15R,1.700000X1.700000*%
G04 #@! TD*
G04 #@! TA.AperFunction,ComponentPad*
%ADD16R,1.500000X1.500000*%
G04 #@! TD*
G04 #@! TA.AperFunction,ComponentPad*
%ADD17C,1.500000*%
G04 #@! TD*
G04 #@! TA.AperFunction,ComponentPad*
%ADD18C,0.610000*%
G04 #@! TD*
G04 #@! TA.AperFunction,ViaPad*
%ADD19C,0.685800*%
G04 #@! TD*
G04 #@! TA.AperFunction,Conductor*
%ADD20C,0.500000*%
G04 #@! TD*
G04 #@! TA.AperFunction,Conductor*
%ADD21C,1.000000*%
G04 #@! TD*
G04 APERTURE END LIST*
D10*
G04 #@! TO.P,R2,1*
G04 #@! TO.N,GNDREF*
X153162000Y-69850000D03*
D11*
G04 #@! TO.P,R2,2*
G04 #@! TO.N,Net-(C1-Pad1)*
X145542000Y-69850000D03*
G04 #@! TD*
D10*
G04 #@! TO.P,R3,1*
G04 #@! TO.N,Net-(Q1-Pad2)*
X143256000Y-72898000D03*
D11*
G04 #@! TO.P,R3,2*
G04 #@! TO.N,PTT*
X135636000Y-72898000D03*
G04 #@! TD*
D10*
G04 #@! TO.P,R4,1*
G04 #@! TO.N,Net-(Q1-Pad2)*
X145542000Y-72898000D03*
D11*
G04 #@! TO.P,R4,2*
G04 #@! TO.N,GNDREF*
X153162000Y-72898000D03*
G04 #@! TD*
D10*
G04 #@! TO.P,R5,1*
G04 #@! TO.N,Net-(R5-Pad1)*
X143256000Y-75946000D03*
D11*
G04 #@! TO.P,R5,2*
G04 #@! TO.N,PD*
X135636000Y-75946000D03*
G04 #@! TD*
D10*
G04 #@! TO.P,R7,1*
G04 #@! TO.N,Net-(Q2-Pad2)*
X143256000Y-78994000D03*
D11*
G04 #@! TO.P,R7,2*
G04 #@! TO.N,HL*
X135636000Y-78994000D03*
G04 #@! TD*
D10*
G04 #@! TO.P,R8,1*
G04 #@! TO.N,Net-(Q2-Pad2)*
X145542000Y-78994000D03*
D11*
G04 #@! TO.P,R8,2*
G04 #@! TO.N,GNDREF*
X153162000Y-78994000D03*
G04 #@! TD*
D10*
G04 #@! TO.P,R1,1*
G04 #@! TO.N,Net-(C1-Pad1)*
X143256000Y-69850000D03*
D11*
G04 #@! TO.P,R1,2*
G04 #@! TO.N,MIC*
X135636000Y-69850000D03*
G04 #@! TD*
D10*
G04 #@! TO.P,R6,1*
G04 #@! TO.N,Net-(R5-Pad1)*
X145542000Y-75946000D03*
D11*
G04 #@! TO.P,R6,2*
G04 #@! TO.N,GNDREF*
X153162000Y-75946000D03*
G04 #@! TD*
D12*
G04 #@! TO.P,J2,1,Pin_1*
G04 #@! TO.N,+5V*
X125349000Y-71628000D03*
G04 #@! TO.P,J2,2,Pin_2*
G04 #@! TO.N,GNDREF*
X120349000Y-71628000D03*
G04 #@! TD*
D13*
G04 #@! TO.P,C1,1*
G04 #@! TO.N,Net-(C1-Pad1)*
X149606000Y-82945088D03*
D10*
G04 #@! TO.P,C1,2*
G04 #@! TO.N,Net-(C1-Pad2)*
X149606000Y-85445088D03*
G04 #@! TD*
D14*
G04 #@! TO.P,Conn3,5v0,5V*
G04 #@! TO.N,+5V*
X130835000Y-117368000D03*
G04 #@! TO.P,Conn3,GND,GND*
G04 #@! TO.N,GNDREF*
X130835000Y-119908000D03*
G04 #@! TD*
D15*
G04 #@! TO.P,Conn1,1,3V3*
G04 #@! TO.N,unconnected-(Conn1-Pad1)*
X130810000Y-69088000D03*
D14*
G04 #@! TO.P,Conn1,2,GPIO0*
G04 #@! TO.N,unconnected-(Conn1-Pad2)*
X130810000Y-71628000D03*
G04 #@! TO.P,Conn1,3,GPIO1*
G04 #@! TO.N,MIC*
X130810000Y-74168000D03*
G04 #@! TO.P,Conn1,4,GPIO2*
G04 #@! TO.N,PTT*
X130810000Y-76708000D03*
G04 #@! TO.P,Conn1,5,GPIO3*
G04 #@! TO.N,PD*
X130810000Y-79248000D03*
G04 #@! TO.P,Conn1,6,GPIO4*
G04 #@! TO.N,HL*
X130810000Y-81788000D03*
G04 #@! TO.P,Conn1,7,GPIO5*
G04 #@! TO.N,SCL*
X130810000Y-84328000D03*
G04 #@! TO.P,Conn1,8,GPIO6*
G04 #@! TO.N,SDA*
X130810000Y-86868000D03*
G04 #@! TD*
D16*
G04 #@! TO.P,Q1,1,S*
G04 #@! TO.N,GNDREF*
X138176000Y-81864200D03*
D17*
G04 #@! TO.P,Q1,2,G*
G04 #@! TO.N,Net-(Q1-Pad2)*
X138176000Y-84404200D03*
G04 #@! TO.P,Q1,3,D*
G04 #@! TO.N,Net-(Q1-Pad3)*
X138176000Y-86944200D03*
G04 #@! TD*
D16*
G04 #@! TO.P,Q2,1,S*
G04 #@! TO.N,GNDREF*
X143256000Y-81864200D03*
D17*
G04 #@! TO.P,Q2,2,G*
G04 #@! TO.N,Net-(Q2-Pad2)*
X143256000Y-84404200D03*
G04 #@! TO.P,Q2,3,D*
G04 #@! TO.N,Net-(Q2-Pad3)*
X143256000Y-86944200D03*
G04 #@! TD*
D12*
G04 #@! TO.P,J1,1,Pin_1*
G04 #@! TO.N,GNDREF*
X113247800Y-71628000D03*
G04 #@! TO.P,J1,2,Pin_2*
G04 #@! TO.N,Net-(FL1-Pad3)*
X108247800Y-71628000D03*
G04 #@! TD*
D15*
G04 #@! TO.P,Conn2,1,GND*
G04 #@! TO.N,GNDREF*
X156210000Y-69088000D03*
D14*
G04 #@! TO.P,Conn2,2,RST*
G04 #@! TO.N,unconnected-(Conn2-Pad2)*
X156210000Y-71628000D03*
G04 #@! TO.P,Conn2,3,LOG*
G04 #@! TO.N,unconnected-(Conn2-Pad3)*
X156210000Y-74168000D03*
G04 #@! TO.P,Conn2,4,VSPI*
G04 #@! TO.N,unconnected-(Conn2-Pad4)*
X156210000Y-76708000D03*
G04 #@! TO.P,Conn2,5,RX*
G04 #@! TO.N,unconnected-(Conn2-Pad5)*
X156210000Y-79248000D03*
G04 #@! TO.P,Conn2,6,TX*
G04 #@! TO.N,unconnected-(Conn2-Pad6)*
X156210000Y-81788000D03*
G04 #@! TO.P,Conn2,7,GPIO42*
G04 #@! TO.N,unconnected-(Conn2-Pad7)*
X156210000Y-84328000D03*
G04 #@! TO.P,Conn2,8,GPIO41*
G04 #@! TO.N,unconnected-(Conn2-Pad8)*
X156210000Y-86868000D03*
G04 #@! TO.P,Conn2,9,GPIO40*
G04 #@! TO.N,unconnected-(Conn2-Pad9)*
X156210000Y-89408000D03*
G04 #@! TO.P,Conn2,10,GPIO39*
G04 #@! TO.N,unconnected-(Conn2-Pad10)*
X156210000Y-91948000D03*
G04 #@! TO.P,Conn2,11,GPIO38*
G04 #@! TO.N,unconnected-(Conn2-Pad11)*
X156210000Y-94488000D03*
G04 #@! TO.P,Conn2,12,GPIO37*
G04 #@! TO.N,unconnected-(Conn2-Pad12)*
X156210000Y-97028000D03*
G04 #@! TO.P,Conn2,13,GPIO36*
G04 #@! TO.N,unconnected-(Conn2-Pad13)*
X156210000Y-99568000D03*
G04 #@! TO.P,Conn2,14,GPIO35*
G04 #@! TO.N,unconnected-(Conn2-Pad14)*
X156210000Y-102108000D03*
G04 #@! TO.P,Conn2,15,GPIO34*
G04 #@! TO.N,RX*
X156210000Y-104648000D03*
G04 #@! TO.P,Conn2,16,GPIO33*
G04 #@! TO.N,TX*
X156210000Y-107188000D03*
G04 #@! TO.P,Conn2,17,PSRAM*
G04 #@! TO.N,unconnected-(Conn2-Pad17)*
X156210000Y-109728000D03*
G04 #@! TO.P,Conn2,18,GPIO21*
G04 #@! TO.N,unconnected-(Conn2-Pad18)*
X156210000Y-112268000D03*
G04 #@! TO.P,Conn2,19,GPIO20*
G04 #@! TO.N,unconnected-(Conn2-Pad19)*
X156210000Y-114808000D03*
G04 #@! TO.P,Conn2,20,GPIO19*
G04 #@! TO.N,unconnected-(Conn2-Pad20)*
X156210000Y-117348000D03*
G04 #@! TO.P,Conn2,21,LED*
G04 #@! TO.N,unconnected-(Conn2-Pad21)*
X156210000Y-119888000D03*
G04 #@! TD*
G04 #@! TO.P,RTC1,*
G04 #@! TO.N,*
X120406000Y-119888000D03*
X117866000Y-119888000D03*
D15*
X112786000Y-119888000D03*
D14*
X115326000Y-119888000D03*
D15*
G04 #@! TO.P,RTC1,1,32KHZ*
G04 #@! TO.N,unconnected-(RTC1-Pad1)*
X110236000Y-84328000D03*
D14*
G04 #@! TO.P,RTC1,2,~{INT}/SQW*
G04 #@! TO.N,unconnected-(RTC1-Pad2)*
X112776000Y-84328000D03*
G04 #@! TO.P,RTC1,3,SCL*
G04 #@! TO.N,SCL*
X115316000Y-84328000D03*
G04 #@! TO.P,RTC1,4,SDA*
G04 #@! TO.N,SDA*
X117856000Y-84328000D03*
G04 #@! TO.P,RTC1,5,VCC*
G04 #@! TO.N,+5V*
X120396000Y-84328000D03*
G04 #@! TO.P,RTC1,6,GND*
G04 #@! TO.N,GNDREF*
X122936000Y-84328000D03*
G04 #@! TD*
D18*
G04 #@! TO.P,FL1,2,GND*
G04 #@! TO.N,GNDREF*
X106083000Y-115671000D03*
G04 #@! TO.P,FL1,4,GND*
X108293000Y-115671000D03*
G04 #@! TD*
D19*
G04 #@! TO.N,Net-(C1-Pad2)*
X142382000Y-111062000D03*
G04 #@! TO.N,TX*
X133482000Y-111062000D03*
G04 #@! TO.N,RX*
X137932000Y-111062000D03*
G04 #@! TO.N,+5V*
X111506000Y-95504000D03*
G04 #@! TO.N,Net-(Q1-Pad3)*
X124582000Y-93662000D03*
G04 #@! TO.N,Net-(Q2-Pad3)*
X115682000Y-93662000D03*
G04 #@! TO.N,Net-(R5-Pad1)*
X120132000Y-93662000D03*
G04 #@! TO.N,GNDREF*
X139192000Y-71628000D03*
X120904000Y-69342000D03*
X110744000Y-69342000D03*
X117348000Y-98298000D03*
X113284000Y-69342000D03*
X145034000Y-108458000D03*
X110744000Y-76200000D03*
X134874000Y-82296000D03*
X153416000Y-116586000D03*
X138938000Y-118364000D03*
X128270000Y-80010000D03*
X127762000Y-85090000D03*
X114046000Y-86360000D03*
X138684000Y-92456000D03*
X119634000Y-112268000D03*
X130302000Y-111506000D03*
X149860000Y-70358000D03*
X145034000Y-112776000D03*
X153162000Y-100584000D03*
X122936000Y-110744000D03*
X115824000Y-73660000D03*
X128016000Y-115570000D03*
X115316000Y-102870000D03*
X107696000Y-119634000D03*
X143764000Y-118364000D03*
X153162000Y-81534000D03*
X110998000Y-107950000D03*
X153162000Y-96520000D03*
X125730000Y-106172000D03*
X110744000Y-73660000D03*
X120904000Y-73660000D03*
X144526000Y-96774000D03*
X117856000Y-90424000D03*
X114300000Y-116078000D03*
X153416000Y-113030000D03*
X115824000Y-69342000D03*
X113284000Y-76200000D03*
X120904000Y-76200000D03*
X127762000Y-89154000D03*
X123444000Y-76200000D03*
X110998000Y-112268000D03*
X140716000Y-94488000D03*
X153162000Y-92456000D03*
X151892000Y-106172000D03*
X118364000Y-73660000D03*
X118364000Y-76200000D03*
X134874000Y-90424000D03*
X123444000Y-73660000D03*
X123444000Y-69342000D03*
X118364000Y-69342000D03*
X114046000Y-82042000D03*
X153162000Y-88138000D03*
X113284000Y-73660000D03*
X147828000Y-77470000D03*
G04 #@! TD*
D20*
G04 #@! TO.N,Net-(C1-Pad1)*
X149606000Y-82945088D02*
X149606000Y-73914000D01*
X143256000Y-69850000D02*
X145542000Y-69850000D01*
X149606000Y-73914000D02*
X145542000Y-69850000D01*
G04 #@! TO.N,Net-(C1-Pad2)*
X149606000Y-106934000D02*
X145478000Y-111062000D01*
X145478000Y-111062000D02*
X142382000Y-111062000D01*
X149606000Y-85445088D02*
X149606000Y-106934000D01*
G04 #@! TO.N,TX*
X147574000Y-115824000D02*
X138244000Y-115824000D01*
X138244000Y-115824000D02*
X133482000Y-111062000D01*
X156210000Y-107188000D02*
X147574000Y-115824000D01*
G04 #@! TO.N,RX*
X141424000Y-114554000D02*
X137932000Y-111062000D01*
X146304000Y-114554000D02*
X141424000Y-114554000D01*
X156210000Y-104648000D02*
X146304000Y-114554000D01*
G04 #@! TO.N,PD*
X134112000Y-75946000D02*
X135636000Y-75946000D01*
X130810000Y-79248000D02*
X134112000Y-75946000D01*
G04 #@! TO.N,PTT*
X134620000Y-72898000D02*
X135636000Y-72898000D01*
X130810000Y-76708000D02*
X134620000Y-72898000D01*
G04 #@! TO.N,HL*
X133604000Y-78994000D02*
X135636000Y-78994000D01*
X130810000Y-81788000D02*
X133604000Y-78994000D01*
G04 #@! TO.N,Net-(Q1-Pad2)*
X143256000Y-72898000D02*
X145542000Y-72898000D01*
X143256000Y-72898000D02*
X140208000Y-75946000D01*
X140208000Y-82372200D02*
X138176000Y-84404200D01*
X140208000Y-75946000D02*
X140208000Y-82372200D01*
G04 #@! TO.N,Net-(Q2-Pad2)*
X145542000Y-82118200D02*
X145542000Y-78994000D01*
X143256000Y-78994000D02*
X145542000Y-78994000D01*
X143256000Y-84404200D02*
X145542000Y-82118200D01*
D21*
G04 #@! TO.N,+5V*
X111506000Y-90678000D02*
X111506000Y-95504000D01*
X130835000Y-117368000D02*
X130835000Y-114833000D01*
X123063000Y-88646000D02*
X120269000Y-88646000D01*
X120396000Y-88519000D02*
X120269000Y-88646000D01*
X125349000Y-86360000D02*
X123063000Y-88646000D01*
X125349000Y-71628000D02*
X125349000Y-86360000D01*
X120269000Y-88646000D02*
X113538000Y-88646000D01*
X130835000Y-114833000D02*
X111506000Y-95504000D01*
X113538000Y-88646000D02*
X111506000Y-90678000D01*
X120396000Y-84328000D02*
X120396000Y-88519000D01*
D20*
G04 #@! TO.N,Net-(Q1-Pad3)*
X138176000Y-86944200D02*
X138176000Y-90932000D01*
X133858000Y-95250000D02*
X126170000Y-95250000D01*
X138176000Y-90932000D02*
X133858000Y-95250000D01*
X126170000Y-95250000D02*
X124582000Y-93662000D01*
G04 #@! TO.N,Net-(Q2-Pad3)*
X143256000Y-86944200D02*
X143256000Y-94742000D01*
X143256000Y-94742000D02*
X138430000Y-99568000D01*
X138430000Y-99568000D02*
X121588000Y-99568000D01*
X121588000Y-99568000D02*
X115682000Y-93662000D01*
G04 #@! TO.N,Net-(R5-Pad1)*
X143256000Y-75946000D02*
X145542000Y-75946000D01*
X124006000Y-97536000D02*
X120132000Y-93662000D01*
X141478000Y-77724000D02*
X141478000Y-91694000D01*
X141478000Y-91694000D02*
X135636000Y-97536000D01*
X135636000Y-97536000D02*
X124006000Y-97536000D01*
X143256000Y-75946000D02*
X141478000Y-77724000D01*
G04 #@! TO.N,MIC*
X130810000Y-74168000D02*
X135128000Y-69850000D01*
X135128000Y-69850000D02*
X135636000Y-69850000D01*
G04 #@! TD*
G04 #@! TA.AperFunction,Conductor*
G04 #@! TO.N,GNDREF*
G36*
X129460928Y-67838502D02*
G01*
X129507421Y-67892158D01*
X129517525Y-67962432D01*
X129508067Y-67990801D01*
X129509385Y-67991295D01*
X129458255Y-68127684D01*
X129451500Y-68189866D01*
X129451500Y-69986134D01*
X129458255Y-70048316D01*
X129509385Y-70184705D01*
X129596739Y-70301261D01*
X129713295Y-70388615D01*
X129721704Y-70391767D01*
X129721705Y-70391768D01*
X129830451Y-70432535D01*
X129887216Y-70475176D01*
X129911916Y-70541738D01*
X129896709Y-70611087D01*
X129877316Y-70637568D01*
X129823102Y-70694300D01*
X129750629Y-70770138D01*
X129747715Y-70774410D01*
X129747714Y-70774411D01*
X129694581Y-70852301D01*
X129624743Y-70954680D01*
X129609498Y-70987523D01*
X129533700Y-71150817D01*
X129530688Y-71157305D01*
X129470989Y-71372570D01*
X129447251Y-71594695D01*
X129447548Y-71599848D01*
X129447548Y-71599851D01*
X129453011Y-71694590D01*
X129460110Y-71817715D01*
X129461247Y-71822761D01*
X129461248Y-71822767D01*
X129476806Y-71891802D01*
X129509222Y-72035639D01*
X129593266Y-72242616D01*
X129624383Y-72293394D01*
X129681898Y-72387250D01*
X129709987Y-72433088D01*
X129856250Y-72601938D01*
X130028126Y-72744632D01*
X130098595Y-72785811D01*
X130101445Y-72787476D01*
X130150169Y-72839114D01*
X130163240Y-72908897D01*
X130136509Y-72974669D01*
X130096055Y-73008027D01*
X130083607Y-73014507D01*
X130079474Y-73017610D01*
X130079471Y-73017612D01*
X129927917Y-73131402D01*
X129904965Y-73148635D01*
X129750629Y-73310138D01*
X129747715Y-73314410D01*
X129747714Y-73314411D01*
X129725318Y-73347243D01*
X129624743Y-73494680D01*
X129530688Y-73697305D01*
X129470989Y-73912570D01*
X129447251Y-74134695D01*
X129447548Y-74139848D01*
X129447548Y-74139851D01*
X129450996Y-74199645D01*
X129460110Y-74357715D01*
X129461247Y-74362761D01*
X129461248Y-74362767D01*
X129485304Y-74469508D01*
X129509222Y-74575639D01*
X129593266Y-74782616D01*
X129595965Y-74787020D01*
X129687654Y-74936643D01*
X129709987Y-74973088D01*
X129856250Y-75141938D01*
X130028126Y-75284632D01*
X130061938Y-75304390D01*
X130101445Y-75327476D01*
X130150169Y-75379114D01*
X130163240Y-75448897D01*
X130136509Y-75514669D01*
X130096055Y-75548027D01*
X130083607Y-75554507D01*
X130079474Y-75557610D01*
X130079471Y-75557612D01*
X129916721Y-75679808D01*
X129904965Y-75688635D01*
X129750629Y-75850138D01*
X129747715Y-75854410D01*
X129747714Y-75854411D01*
X129662556Y-75979249D01*
X129624743Y-76034680D01*
X129590285Y-76108913D01*
X129557566Y-76179402D01*
X129530688Y-76237305D01*
X129470989Y-76452570D01*
X129447251Y-76674695D01*
X129447548Y-76679848D01*
X129447548Y-76679851D01*
X129454141Y-76794197D01*
X129460110Y-76897715D01*
X129461247Y-76902761D01*
X129461248Y-76902767D01*
X129468318Y-76934138D01*
X129509222Y-77115639D01*
X129593266Y-77322616D01*
X129709987Y-77513088D01*
X129856250Y-77681938D01*
X130028126Y-77824632D01*
X130088025Y-77859634D01*
X130101445Y-77867476D01*
X130150169Y-77919114D01*
X130163240Y-77988897D01*
X130136509Y-78054669D01*
X130096055Y-78088027D01*
X130083607Y-78094507D01*
X130079474Y-78097610D01*
X130079471Y-78097612D01*
X129909100Y-78225530D01*
X129904965Y-78228635D01*
X129859965Y-78275725D01*
X129785610Y-78353533D01*
X129750629Y-78390138D01*
X129747715Y-78394410D01*
X129747714Y-78394411D01*
X129699154Y-78465598D01*
X129624743Y-78574680D01*
X129530688Y-78777305D01*
X129470989Y-78992570D01*
X129447251Y-79214695D01*
X129447548Y-79219848D01*
X129447548Y-79219851D01*
X129449171Y-79248000D01*
X129460110Y-79437715D01*
X129461247Y-79442761D01*
X129461248Y-79442767D01*
X129485304Y-79549508D01*
X129509222Y-79655639D01*
X129544695Y-79742998D01*
X129575679Y-79819303D01*
X129593266Y-79862616D01*
X129595965Y-79867020D01*
X129674298Y-79994848D01*
X129709987Y-80053088D01*
X129856250Y-80221938D01*
X130028126Y-80364632D01*
X130098595Y-80405811D01*
X130101445Y-80407476D01*
X130150169Y-80459114D01*
X130163240Y-80528897D01*
X130136509Y-80594669D01*
X130096055Y-80628027D01*
X130083607Y-80634507D01*
X130079474Y-80637610D01*
X130079471Y-80637612D01*
X130055247Y-80655800D01*
X129904965Y-80768635D01*
X129750629Y-80930138D01*
X129747715Y-80934410D01*
X129747714Y-80934411D01*
X129662556Y-81059249D01*
X129624743Y-81114680D01*
X129530688Y-81317305D01*
X129470989Y-81532570D01*
X129447251Y-81754695D01*
X129447548Y-81759848D01*
X129447548Y-81759851D01*
X129455536Y-81898383D01*
X129460110Y-81977715D01*
X129461247Y-81982761D01*
X129461248Y-81982767D01*
X129481119Y-82070939D01*
X129509222Y-82195639D01*
X129593266Y-82402616D01*
X129623140Y-82451366D01*
X129664883Y-82519484D01*
X129709987Y-82593088D01*
X129856250Y-82761938D01*
X130028126Y-82904632D01*
X130084484Y-82937565D01*
X130101445Y-82947476D01*
X130150169Y-82999114D01*
X130163240Y-83068897D01*
X130136509Y-83134669D01*
X130096055Y-83168027D01*
X130083607Y-83174507D01*
X130079474Y-83177610D01*
X130079471Y-83177612D01*
X129909100Y-83305530D01*
X129904965Y-83308635D01*
X129874083Y-83340951D01*
X129754645Y-83465936D01*
X129750629Y-83470138D01*
X129747720Y-83474403D01*
X129747714Y-83474411D01*
X129670048Y-83588265D01*
X129624743Y-83654680D01*
X129530688Y-83857305D01*
X129470989Y-84072570D01*
X129447251Y-84294695D01*
X129447548Y-84299848D01*
X129447548Y-84299851D01*
X129455565Y-84438890D01*
X129460110Y-84517715D01*
X129461247Y-84522761D01*
X129461248Y-84522767D01*
X129479848Y-84605299D01*
X129509222Y-84735639D01*
X129593266Y-84942616D01*
X129644019Y-85025438D01*
X129707291Y-85128688D01*
X129709987Y-85133088D01*
X129856250Y-85301938D01*
X129917556Y-85352835D01*
X130022081Y-85439613D01*
X130028126Y-85444632D01*
X130038276Y-85450563D01*
X130101445Y-85487476D01*
X130150169Y-85539114D01*
X130163240Y-85608897D01*
X130136509Y-85674669D01*
X130096055Y-85708027D01*
X130083607Y-85714507D01*
X130079474Y-85717610D01*
X130079471Y-85717612D01*
X129985197Y-85788395D01*
X129904965Y-85848635D01*
X129874083Y-85880951D01*
X129754645Y-86005936D01*
X129750629Y-86010138D01*
X129747715Y-86014410D01*
X129747714Y-86014411D01*
X129691478Y-86096850D01*
X129624743Y-86194680D01*
X129530688Y-86397305D01*
X129470989Y-86612570D01*
X129447251Y-86834695D01*
X129447548Y-86839848D01*
X129447548Y-86839851D01*
X129458969Y-87037925D01*
X129460110Y-87057715D01*
X129461247Y-87062761D01*
X129461248Y-87062767D01*
X129472349Y-87112024D01*
X129509222Y-87275639D01*
X129593266Y-87482616D01*
X129595965Y-87487020D01*
X129698107Y-87653701D01*
X129709987Y-87673088D01*
X129856250Y-87841938D01*
X130028126Y-87984632D01*
X130221000Y-88097338D01*
X130429692Y-88177030D01*
X130434760Y-88178061D01*
X130434763Y-88178062D01*
X130539466Y-88199364D01*
X130648597Y-88221567D01*
X130653772Y-88221757D01*
X130653774Y-88221757D01*
X130866673Y-88229564D01*
X130866677Y-88229564D01*
X130871837Y-88229753D01*
X130876957Y-88229097D01*
X130876959Y-88229097D01*
X131088288Y-88202025D01*
X131088289Y-88202025D01*
X131093416Y-88201368D01*
X131100096Y-88199364D01*
X131302429Y-88138661D01*
X131302434Y-88138659D01*
X131307384Y-88137174D01*
X131507994Y-88038896D01*
X131689860Y-87909173D01*
X131699463Y-87899604D01*
X131844435Y-87755137D01*
X131848096Y-87751489D01*
X131851116Y-87747287D01*
X131975435Y-87574277D01*
X131978453Y-87570077D01*
X132007404Y-87511500D01*
X132075136Y-87374453D01*
X132075137Y-87374451D01*
X132077430Y-87369811D01*
X132109900Y-87262940D01*
X132140865Y-87161023D01*
X132140865Y-87161021D01*
X132142370Y-87156069D01*
X132171529Y-86934590D01*
X132173156Y-86868000D01*
X132154852Y-86645361D01*
X132100431Y-86428702D01*
X132011354Y-86223840D01*
X131932427Y-86101837D01*
X131892822Y-86040617D01*
X131892820Y-86040614D01*
X131890014Y-86036277D01*
X131739670Y-85871051D01*
X131735619Y-85867852D01*
X131735615Y-85867848D01*
X131568414Y-85735800D01*
X131568410Y-85735798D01*
X131564359Y-85732598D01*
X131523053Y-85709796D01*
X131473084Y-85659364D01*
X131458312Y-85589921D01*
X131483428Y-85523516D01*
X131510780Y-85496909D01*
X131575755Y-85450563D01*
X131689860Y-85369173D01*
X131848096Y-85211489D01*
X131851116Y-85207287D01*
X131975435Y-85034277D01*
X131978453Y-85030077D01*
X131995372Y-84995845D01*
X132075136Y-84834453D01*
X132075137Y-84834451D01*
X132077430Y-84829811D01*
X132109900Y-84722940D01*
X132140865Y-84621023D01*
X132140865Y-84621021D01*
X132142370Y-84616069D01*
X132171529Y-84394590D01*
X132173156Y-84328000D01*
X132154852Y-84105361D01*
X132100431Y-83888702D01*
X132011354Y-83683840D01*
X131890014Y-83496277D01*
X131739670Y-83331051D01*
X131735619Y-83327852D01*
X131735615Y-83327848D01*
X131568414Y-83195800D01*
X131568410Y-83195798D01*
X131564359Y-83192598D01*
X131523053Y-83169796D01*
X131473084Y-83119364D01*
X131458312Y-83049921D01*
X131483428Y-82983516D01*
X131510780Y-82956909D01*
X131554603Y-82925650D01*
X131689860Y-82829173D01*
X131848096Y-82671489D01*
X131851116Y-82667287D01*
X131975435Y-82494277D01*
X131978453Y-82490077D01*
X131998545Y-82449425D01*
X132075136Y-82294453D01*
X132075137Y-82294451D01*
X132077430Y-82289811D01*
X132132979Y-82106979D01*
X132140865Y-82081023D01*
X132140865Y-82081021D01*
X132142370Y-82076069D01*
X132171529Y-81854590D01*
X132171863Y-81840924D01*
X132173074Y-81791365D01*
X132173074Y-81791361D01*
X132173156Y-81788000D01*
X132155870Y-81577747D01*
X132170223Y-81508219D01*
X132192351Y-81478330D01*
X133881276Y-79789405D01*
X133943588Y-79755379D01*
X133970371Y-79752500D01*
X134504133Y-79752500D01*
X134572254Y-79772502D01*
X134607345Y-79806228D01*
X134629802Y-79838300D01*
X134791700Y-80000198D01*
X134796208Y-80003355D01*
X134796211Y-80003357D01*
X134872807Y-80056990D01*
X134979251Y-80131523D01*
X134984233Y-80133846D01*
X134984238Y-80133849D01*
X135127660Y-80200727D01*
X135186757Y-80228284D01*
X135192065Y-80229706D01*
X135192067Y-80229707D01*
X135402598Y-80286119D01*
X135402600Y-80286119D01*
X135407913Y-80287543D01*
X135636000Y-80307498D01*
X135864087Y-80287543D01*
X135869400Y-80286119D01*
X135869402Y-80286119D01*
X136079933Y-80229707D01*
X136079935Y-80229706D01*
X136085243Y-80228284D01*
X136144340Y-80200727D01*
X136287762Y-80133849D01*
X136287767Y-80133846D01*
X136292749Y-80131523D01*
X136399193Y-80056990D01*
X136475789Y-80003357D01*
X136475792Y-80003355D01*
X136480300Y-80000198D01*
X136642198Y-79838300D01*
X136773523Y-79650749D01*
X136775846Y-79645767D01*
X136775849Y-79645762D01*
X136867961Y-79448225D01*
X136867961Y-79448224D01*
X136870284Y-79443243D01*
X136929543Y-79222087D01*
X136949498Y-78994000D01*
X136929543Y-78765913D01*
X136928110Y-78760564D01*
X136871707Y-78550067D01*
X136871706Y-78550065D01*
X136870284Y-78544757D01*
X136833372Y-78465598D01*
X136775849Y-78342238D01*
X136775846Y-78342233D01*
X136773523Y-78337251D01*
X136642198Y-78149700D01*
X136480300Y-77987802D01*
X136475792Y-77984645D01*
X136475789Y-77984643D01*
X136359927Y-77903516D01*
X136292749Y-77856477D01*
X136287767Y-77854154D01*
X136287762Y-77854151D01*
X136090225Y-77762039D01*
X136090224Y-77762039D01*
X136085243Y-77759716D01*
X136079935Y-77758294D01*
X136079933Y-77758293D01*
X135869402Y-77701881D01*
X135869400Y-77701881D01*
X135864087Y-77700457D01*
X135636000Y-77680502D01*
X135407913Y-77700457D01*
X135402600Y-77701881D01*
X135402598Y-77701881D01*
X135192067Y-77758293D01*
X135192065Y-77758294D01*
X135186757Y-77759716D01*
X135181776Y-77762039D01*
X135181775Y-77762039D01*
X134984238Y-77854151D01*
X134984233Y-77854154D01*
X134979251Y-77856477D01*
X134912073Y-77903516D01*
X134796211Y-77984643D01*
X134796208Y-77984645D01*
X134791700Y-77987802D01*
X134629802Y-78149700D01*
X134607345Y-78181771D01*
X134551890Y-78226099D01*
X134504133Y-78235500D01*
X133671070Y-78235500D01*
X133652120Y-78234067D01*
X133637885Y-78231901D01*
X133637881Y-78231901D01*
X133630651Y-78230801D01*
X133623359Y-78231394D01*
X133623356Y-78231394D01*
X133577982Y-78235085D01*
X133567767Y-78235500D01*
X133559707Y-78235500D01*
X133556073Y-78235924D01*
X133556067Y-78235924D01*
X133543042Y-78237443D01*
X133531480Y-78238791D01*
X133527132Y-78239221D01*
X133454364Y-78245140D01*
X133447403Y-78247395D01*
X133441463Y-78248582D01*
X133435588Y-78249971D01*
X133428319Y-78250818D01*
X133359670Y-78275736D01*
X133355542Y-78277153D01*
X133293064Y-78297393D01*
X133293062Y-78297394D01*
X133286101Y-78299649D01*
X133279846Y-78303445D01*
X133274372Y-78305951D01*
X133268942Y-78308670D01*
X133262063Y-78311167D01*
X133255943Y-78315180D01*
X133255942Y-78315180D01*
X133201024Y-78351186D01*
X133197320Y-78353523D01*
X133134893Y-78391405D01*
X133126516Y-78398803D01*
X133126492Y-78398776D01*
X133123500Y-78401429D01*
X133120267Y-78404132D01*
X133114148Y-78408144D01*
X133060872Y-78464383D01*
X133058494Y-78466825D01*
X132373448Y-79151871D01*
X132311136Y-79185897D01*
X132240321Y-79180832D01*
X132183485Y-79138285D01*
X132158777Y-79073102D01*
X132158642Y-79071463D01*
X132155870Y-79037749D01*
X132170222Y-78968221D01*
X132192351Y-78938330D01*
X134389276Y-76741405D01*
X134451588Y-76707379D01*
X134478371Y-76704500D01*
X134504133Y-76704500D01*
X134572254Y-76724502D01*
X134607345Y-76758228D01*
X134629802Y-76790300D01*
X134791700Y-76952198D01*
X134796208Y-76955355D01*
X134796211Y-76955357D01*
X134874389Y-77010098D01*
X134979251Y-77083523D01*
X134984233Y-77085846D01*
X134984238Y-77085849D01*
X135140330Y-77158635D01*
X135186757Y-77180284D01*
X135192065Y-77181706D01*
X135192067Y-77181707D01*
X135402598Y-77238119D01*
X135402600Y-77238119D01*
X135407913Y-77239543D01*
X135636000Y-77259498D01*
X135864087Y-77239543D01*
X135869400Y-77238119D01*
X135869402Y-77238119D01*
X136079933Y-77181707D01*
X136079935Y-77181706D01*
X136085243Y-77180284D01*
X136131670Y-77158635D01*
X136287762Y-77085849D01*
X136287767Y-77085846D01*
X136292749Y-77083523D01*
X136397611Y-77010098D01*
X136475789Y-76955357D01*
X136475792Y-76955355D01*
X136480300Y-76952198D01*
X136642198Y-76790300D01*
X136653199Y-76774590D01*
X136746857Y-76640832D01*
X136773523Y-76602749D01*
X136775846Y-76597767D01*
X136775849Y-76597762D01*
X136867961Y-76400225D01*
X136867961Y-76400224D01*
X136870284Y-76395243D01*
X136917090Y-76220564D01*
X136928119Y-76179402D01*
X136928119Y-76179400D01*
X136929543Y-76174087D01*
X136949498Y-75946000D01*
X136929543Y-75717913D01*
X136922820Y-75692821D01*
X136871707Y-75502067D01*
X136871706Y-75502065D01*
X136870284Y-75496757D01*
X136845803Y-75444256D01*
X136775849Y-75294238D01*
X136775846Y-75294233D01*
X136773523Y-75289251D01*
X136670373Y-75141938D01*
X136645357Y-75106211D01*
X136645355Y-75106208D01*
X136642198Y-75101700D01*
X136480300Y-74939802D01*
X136475792Y-74936645D01*
X136475789Y-74936643D01*
X136380723Y-74870077D01*
X136292749Y-74808477D01*
X136287767Y-74806154D01*
X136287762Y-74806151D01*
X136090225Y-74714039D01*
X136090224Y-74714039D01*
X136085243Y-74711716D01*
X136079935Y-74710294D01*
X136079933Y-74710293D01*
X135869402Y-74653881D01*
X135869400Y-74653881D01*
X135864087Y-74652457D01*
X135636000Y-74632502D01*
X135407913Y-74652457D01*
X135402600Y-74653881D01*
X135402598Y-74653881D01*
X135192067Y-74710293D01*
X135192065Y-74710294D01*
X135186757Y-74711716D01*
X135181776Y-74714039D01*
X135181775Y-74714039D01*
X134984238Y-74806151D01*
X134984233Y-74806154D01*
X134979251Y-74808477D01*
X134891277Y-74870077D01*
X134796211Y-74936643D01*
X134796208Y-74936645D01*
X134791700Y-74939802D01*
X134629802Y-75101700D01*
X134607345Y-75133771D01*
X134551890Y-75178099D01*
X134504133Y-75187500D01*
X134179069Y-75187500D01*
X134160121Y-75186067D01*
X134152780Y-75184950D01*
X134145883Y-75183901D01*
X134145881Y-75183901D01*
X134138651Y-75182801D01*
X134131359Y-75183394D01*
X134131356Y-75183394D01*
X134085982Y-75187085D01*
X134075767Y-75187500D01*
X134067707Y-75187500D01*
X134054417Y-75189049D01*
X134039493Y-75190789D01*
X134035118Y-75191222D01*
X133969661Y-75196546D01*
X133969658Y-75196547D01*
X133962363Y-75197140D01*
X133955399Y-75199396D01*
X133949440Y-75200587D01*
X133943585Y-75201971D01*
X133936319Y-75202818D01*
X133867673Y-75227735D01*
X133863545Y-75229152D01*
X133801064Y-75249393D01*
X133801062Y-75249394D01*
X133794101Y-75251649D01*
X133787846Y-75255445D01*
X133782372Y-75257951D01*
X133776942Y-75260670D01*
X133770063Y-75263167D01*
X133763943Y-75267180D01*
X133763942Y-75267180D01*
X133709024Y-75303186D01*
X133705320Y-75305523D01*
X133642893Y-75343405D01*
X133634516Y-75350803D01*
X133634492Y-75350776D01*
X133631500Y-75353429D01*
X133628267Y-75356132D01*
X133622148Y-75360144D01*
X133600355Y-75383149D01*
X133568872Y-75416383D01*
X133566494Y-75418825D01*
X132373448Y-76611871D01*
X132311136Y-76645897D01*
X132240321Y-76640832D01*
X132183485Y-76598285D01*
X132158777Y-76533102D01*
X132158642Y-76531463D01*
X132155870Y-76497749D01*
X132170222Y-76428221D01*
X132192351Y-76398330D01*
X134655056Y-73935626D01*
X134717368Y-73901600D01*
X134788184Y-73906665D01*
X134816419Y-73921506D01*
X134979251Y-74035523D01*
X134984233Y-74037846D01*
X134984238Y-74037849D01*
X135181775Y-74129961D01*
X135186757Y-74132284D01*
X135192065Y-74133706D01*
X135192067Y-74133707D01*
X135402598Y-74190119D01*
X135402600Y-74190119D01*
X135407913Y-74191543D01*
X135636000Y-74211498D01*
X135864087Y-74191543D01*
X135869400Y-74190119D01*
X135869402Y-74190119D01*
X136079933Y-74133707D01*
X136079935Y-74133706D01*
X136085243Y-74132284D01*
X136090225Y-74129961D01*
X136287762Y-74037849D01*
X136287767Y-74037846D01*
X136292749Y-74035523D01*
X136428240Y-73940651D01*
X136475789Y-73907357D01*
X136475792Y-73907355D01*
X136480300Y-73904198D01*
X136642198Y-73742300D01*
X136649803Y-73731440D01*
X136752587Y-73584648D01*
X136773523Y-73554749D01*
X136775846Y-73549767D01*
X136775849Y-73549762D01*
X136867961Y-73352225D01*
X136867961Y-73352224D01*
X136870284Y-73347243D01*
X136873223Y-73336277D01*
X136928119Y-73131402D01*
X136928119Y-73131400D01*
X136929543Y-73126087D01*
X136949498Y-72898000D01*
X136929543Y-72669913D01*
X136905646Y-72580727D01*
X136871707Y-72454067D01*
X136871706Y-72454065D01*
X136870284Y-72448757D01*
X136863123Y-72433400D01*
X136775849Y-72246238D01*
X136775846Y-72246233D01*
X136773523Y-72241251D01*
X136651088Y-72066396D01*
X136645357Y-72058211D01*
X136645355Y-72058208D01*
X136642198Y-72053700D01*
X136480300Y-71891802D01*
X136475792Y-71888645D01*
X136475789Y-71888643D01*
X136367112Y-71812547D01*
X136292749Y-71760477D01*
X136287767Y-71758154D01*
X136287762Y-71758151D01*
X136090225Y-71666039D01*
X136090224Y-71666039D01*
X136085243Y-71663716D01*
X136079935Y-71662294D01*
X136079933Y-71662293D01*
X135869402Y-71605881D01*
X135869400Y-71605881D01*
X135864087Y-71604457D01*
X135636000Y-71584502D01*
X135407913Y-71604457D01*
X135402600Y-71605881D01*
X135402598Y-71605881D01*
X135192067Y-71662293D01*
X135192065Y-71662294D01*
X135186757Y-71663716D01*
X135181776Y-71666039D01*
X135181775Y-71666039D01*
X134984238Y-71758151D01*
X134984233Y-71758154D01*
X134979251Y-71760477D01*
X134904888Y-71812547D01*
X134796211Y-71888643D01*
X134796208Y-71888645D01*
X134791700Y-71891802D01*
X134629802Y-72053700D01*
X134626643Y-72058212D01*
X134626641Y-72058214D01*
X134602535Y-72092640D01*
X134547078Y-72136968D01*
X134509540Y-72145953D01*
X134477662Y-72148546D01*
X134477659Y-72148547D01*
X134470364Y-72149140D01*
X134463400Y-72151396D01*
X134457461Y-72152583D01*
X134451590Y-72153970D01*
X134444319Y-72154818D01*
X134437443Y-72157314D01*
X134437434Y-72157316D01*
X134375702Y-72179725D01*
X134371598Y-72181135D01*
X134302101Y-72203648D01*
X134295846Y-72207444D01*
X134290387Y-72209943D01*
X134284939Y-72212671D01*
X134278063Y-72215167D01*
X134217010Y-72255195D01*
X134213327Y-72257519D01*
X134155686Y-72292496D01*
X134155682Y-72292499D01*
X134150893Y-72295405D01*
X134146694Y-72299114D01*
X134146689Y-72299117D01*
X134142516Y-72302803D01*
X134142492Y-72302776D01*
X134139500Y-72305429D01*
X134136267Y-72308132D01*
X134130148Y-72312144D01*
X134125116Y-72317456D01*
X134076872Y-72368383D01*
X134074494Y-72370825D01*
X132373448Y-74071871D01*
X132311136Y-74105897D01*
X132240321Y-74100832D01*
X132183485Y-74058285D01*
X132158777Y-73993102D01*
X132157004Y-73971540D01*
X132155870Y-73957749D01*
X132170222Y-73888221D01*
X132192351Y-73858330D01*
X134974089Y-71076592D01*
X135036401Y-71042566D01*
X135107216Y-71047631D01*
X135116433Y-71051492D01*
X135181768Y-71081958D01*
X135181772Y-71081959D01*
X135186757Y-71084284D01*
X135297335Y-71113914D01*
X135402598Y-71142119D01*
X135402600Y-71142119D01*
X135407913Y-71143543D01*
X135636000Y-71163498D01*
X135864087Y-71143543D01*
X135869400Y-71142119D01*
X135869402Y-71142119D01*
X136079933Y-71085707D01*
X136079935Y-71085706D01*
X136085243Y-71084284D01*
X136101739Y-71076592D01*
X136287762Y-70989849D01*
X136287767Y-70989846D01*
X136292749Y-70987523D01*
X136418303Y-70899609D01*
X136475789Y-70859357D01*
X136475792Y-70859355D01*
X136480300Y-70856198D01*
X136642198Y-70694300D01*
X136773523Y-70506749D01*
X136775846Y-70501767D01*
X136775849Y-70501762D01*
X136867961Y-70304225D01*
X136867961Y-70304224D01*
X136870284Y-70299243D01*
X136872540Y-70290826D01*
X136928119Y-70083402D01*
X136928119Y-70083400D01*
X136929543Y-70078087D01*
X136949498Y-69850000D01*
X136929543Y-69621913D01*
X136870284Y-69400757D01*
X136867961Y-69395775D01*
X136775849Y-69198238D01*
X136775846Y-69198233D01*
X136773523Y-69193251D01*
X136642198Y-69005700D01*
X136480300Y-68843802D01*
X136475792Y-68840645D01*
X136475789Y-68840643D01*
X136397611Y-68785902D01*
X136292749Y-68712477D01*
X136287767Y-68710154D01*
X136287762Y-68710151D01*
X136090225Y-68618039D01*
X136090224Y-68618039D01*
X136085243Y-68615716D01*
X136079935Y-68614294D01*
X136079933Y-68614293D01*
X135869402Y-68557881D01*
X135869400Y-68557881D01*
X135864087Y-68556457D01*
X135636000Y-68536502D01*
X135407913Y-68556457D01*
X135402600Y-68557881D01*
X135402598Y-68557881D01*
X135192067Y-68614293D01*
X135192065Y-68614294D01*
X135186757Y-68615716D01*
X135181776Y-68618039D01*
X135181775Y-68618039D01*
X134984238Y-68710151D01*
X134984233Y-68710154D01*
X134979251Y-68712477D01*
X134874389Y-68785902D01*
X134796211Y-68840643D01*
X134796208Y-68840645D01*
X134791700Y-68843802D01*
X134629802Y-69005700D01*
X134498477Y-69193251D01*
X134496154Y-69198233D01*
X134496151Y-69198238D01*
X134447025Y-69303591D01*
X134401716Y-69400757D01*
X134400293Y-69406067D01*
X134400292Y-69406071D01*
X134372809Y-69508638D01*
X134340197Y-69565122D01*
X132373448Y-71531871D01*
X132311136Y-71565897D01*
X132240321Y-71560832D01*
X132183485Y-71518285D01*
X132158777Y-71453101D01*
X132155276Y-71410521D01*
X132154852Y-71405361D01*
X132100431Y-71188702D01*
X132011354Y-70983840D01*
X131959624Y-70903878D01*
X131892822Y-70800617D01*
X131892820Y-70800614D01*
X131890014Y-70796277D01*
X131886532Y-70792450D01*
X131742798Y-70634488D01*
X131711746Y-70570642D01*
X131720141Y-70500143D01*
X131765317Y-70445375D01*
X131791761Y-70431706D01*
X131898297Y-70391767D01*
X131906705Y-70388615D01*
X132023261Y-70301261D01*
X132110615Y-70184705D01*
X132161745Y-70048316D01*
X132168500Y-69986134D01*
X132168500Y-68189866D01*
X132161745Y-68127684D01*
X132110615Y-67991295D01*
X132113440Y-67990236D01*
X132101505Y-67935640D01*
X132126248Y-67869094D01*
X132183040Y-67826489D01*
X132227193Y-67818500D01*
X157353500Y-67818500D01*
X157421621Y-67838502D01*
X157468114Y-67892158D01*
X157479500Y-67944500D01*
X157479500Y-70678828D01*
X157459498Y-70746949D01*
X157405842Y-70793442D01*
X157335568Y-70803546D01*
X157270988Y-70774052D01*
X157260307Y-70763628D01*
X157143152Y-70634876D01*
X157143142Y-70634867D01*
X157139670Y-70631051D01*
X157135619Y-70627852D01*
X157135615Y-70627848D01*
X156968414Y-70495800D01*
X156968410Y-70495798D01*
X156964359Y-70492598D01*
X156768789Y-70384638D01*
X156763920Y-70382914D01*
X156763916Y-70382912D01*
X156563087Y-70311795D01*
X156563083Y-70311794D01*
X156558212Y-70310069D01*
X156553119Y-70309162D01*
X156553116Y-70309161D01*
X156343373Y-70271800D01*
X156343367Y-70271799D01*
X156338284Y-70270894D01*
X156264452Y-70269992D01*
X156120081Y-70268228D01*
X156120079Y-70268228D01*
X156114911Y-70268165D01*
X155894091Y-70301955D01*
X155681756Y-70371357D01*
X155483607Y-70474507D01*
X155479474Y-70477610D01*
X155479471Y-70477612D01*
X155370208Y-70559649D01*
X155304965Y-70608635D01*
X155150629Y-70770138D01*
X155147715Y-70774410D01*
X155147714Y-70774411D01*
X155094581Y-70852301D01*
X155024743Y-70954680D01*
X155009498Y-70987523D01*
X154933700Y-71150817D01*
X154930688Y-71157305D01*
X154870989Y-71372570D01*
X154847251Y-71594695D01*
X154847548Y-71599848D01*
X154847548Y-71599851D01*
X154853011Y-71694590D01*
X154860110Y-71817715D01*
X154861247Y-71822761D01*
X154861248Y-71822767D01*
X154876806Y-71891802D01*
X154909222Y-72035639D01*
X154993266Y-72242616D01*
X155024383Y-72293394D01*
X155081898Y-72387250D01*
X155109987Y-72433088D01*
X155256250Y-72601938D01*
X155428126Y-72744632D01*
X155498595Y-72785811D01*
X155501445Y-72787476D01*
X155550169Y-72839114D01*
X155563240Y-72908897D01*
X155536509Y-72974669D01*
X155496055Y-73008027D01*
X155483607Y-73014507D01*
X155479474Y-73017610D01*
X155479471Y-73017612D01*
X155327917Y-73131402D01*
X155304965Y-73148635D01*
X155150629Y-73310138D01*
X155147715Y-73314410D01*
X155147714Y-73314411D01*
X155125318Y-73347243D01*
X155024743Y-73494680D01*
X154930688Y-73697305D01*
X154870989Y-73912570D01*
X154847251Y-74134695D01*
X154847548Y-74139848D01*
X154847548Y-74139851D01*
X154850996Y-74199645D01*
X154860110Y-74357715D01*
X154861247Y-74362761D01*
X154861248Y-74362767D01*
X154885304Y-74469508D01*
X154909222Y-74575639D01*
X154993266Y-74782616D01*
X154995965Y-74787020D01*
X155087654Y-74936643D01*
X155109987Y-74973088D01*
X155256250Y-75141938D01*
X155428126Y-75284632D01*
X155461938Y-75304390D01*
X155501445Y-75327476D01*
X155550169Y-75379114D01*
X155563240Y-75448897D01*
X155536509Y-75514669D01*
X155496055Y-75548027D01*
X155483607Y-75554507D01*
X155479474Y-75557610D01*
X155479471Y-75557612D01*
X155316721Y-75679808D01*
X155304965Y-75688635D01*
X155150629Y-75850138D01*
X155147715Y-75854410D01*
X155147714Y-75854411D01*
X155062556Y-75979249D01*
X155024743Y-76034680D01*
X154990285Y-76108913D01*
X154957566Y-76179402D01*
X154930688Y-76237305D01*
X154870989Y-76452570D01*
X154847251Y-76674695D01*
X154847548Y-76679848D01*
X154847548Y-76679851D01*
X154854141Y-76794197D01*
X154860110Y-76897715D01*
X154861247Y-76902761D01*
X154861248Y-76902767D01*
X154868318Y-76934138D01*
X154909222Y-77115639D01*
X154993266Y-77322616D01*
X155109987Y-77513088D01*
X155256250Y-77681938D01*
X155428126Y-77824632D01*
X155488025Y-77859634D01*
X155501445Y-77867476D01*
X155550169Y-77919114D01*
X155563240Y-77988897D01*
X155536509Y-78054669D01*
X155496055Y-78088027D01*
X155483607Y-78094507D01*
X155479474Y-78097610D01*
X155479471Y-78097612D01*
X155309100Y-78225530D01*
X155304965Y-78228635D01*
X155259965Y-78275725D01*
X155185610Y-78353533D01*
X155150629Y-78390138D01*
X155147715Y-78394410D01*
X155147714Y-78394411D01*
X155099154Y-78465598D01*
X155024743Y-78574680D01*
X154930688Y-78777305D01*
X154870989Y-78992570D01*
X154847251Y-79214695D01*
X154847548Y-79219848D01*
X154847548Y-79219851D01*
X154849171Y-79248000D01*
X154860110Y-79437715D01*
X154861247Y-79442761D01*
X154861248Y-79442767D01*
X154885304Y-79549508D01*
X154909222Y-79655639D01*
X154944695Y-79742998D01*
X154975679Y-79819303D01*
X154993266Y-79862616D01*
X154995965Y-79867020D01*
X155074298Y-79994848D01*
X155109987Y-80053088D01*
X155256250Y-80221938D01*
X155428126Y-80364632D01*
X155498595Y-80405811D01*
X155501445Y-80407476D01*
X155550169Y-80459114D01*
X155563240Y-80528897D01*
X155536509Y-80594669D01*
X155496055Y-80628027D01*
X155483607Y-80634507D01*
X155479474Y-80637610D01*
X155479471Y-80637612D01*
X155455247Y-80655800D01*
X155304965Y-80768635D01*
X155150629Y-80930138D01*
X155147715Y-80934410D01*
X155147714Y-80934411D01*
X155062556Y-81059249D01*
X155024743Y-81114680D01*
X154930688Y-81317305D01*
X154870989Y-81532570D01*
X154847251Y-81754695D01*
X154847548Y-81759848D01*
X154847548Y-81759851D01*
X154855536Y-81898383D01*
X154860110Y-81977715D01*
X154861247Y-81982761D01*
X154861248Y-81982767D01*
X154881119Y-82070939D01*
X154909222Y-82195639D01*
X154993266Y-82402616D01*
X155023140Y-82451366D01*
X155064883Y-82519484D01*
X155109987Y-82593088D01*
X155256250Y-82761938D01*
X155428126Y-82904632D01*
X155484484Y-82937565D01*
X155501445Y-82947476D01*
X155550169Y-82999114D01*
X155563240Y-83068897D01*
X155536509Y-83134669D01*
X155496055Y-83168027D01*
X155483607Y-83174507D01*
X155479474Y-83177610D01*
X155479471Y-83177612D01*
X155309100Y-83305530D01*
X155304965Y-83308635D01*
X155274083Y-83340951D01*
X155154645Y-83465936D01*
X155150629Y-83470138D01*
X155147720Y-83474403D01*
X155147714Y-83474411D01*
X155070048Y-83588265D01*
X155024743Y-83654680D01*
X154930688Y-83857305D01*
X154870989Y-84072570D01*
X154847251Y-84294695D01*
X154847548Y-84299848D01*
X154847548Y-84299851D01*
X154855565Y-84438890D01*
X154860110Y-84517715D01*
X154861247Y-84522761D01*
X154861248Y-84522767D01*
X154879848Y-84605299D01*
X154909222Y-84735639D01*
X154993266Y-84942616D01*
X155044019Y-85025438D01*
X155107291Y-85128688D01*
X155109987Y-85133088D01*
X155256250Y-85301938D01*
X155317556Y-85352835D01*
X155422081Y-85439613D01*
X155428126Y-85444632D01*
X155438276Y-85450563D01*
X155501445Y-85487476D01*
X155550169Y-85539114D01*
X155563240Y-85608897D01*
X155536509Y-85674669D01*
X155496055Y-85708027D01*
X155483607Y-85714507D01*
X155479474Y-85717610D01*
X155479471Y-85717612D01*
X155385197Y-85788395D01*
X155304965Y-85848635D01*
X155274083Y-85880951D01*
X155154645Y-86005936D01*
X155150629Y-86010138D01*
X155147715Y-86014410D01*
X155147714Y-86014411D01*
X155091478Y-86096850D01*
X155024743Y-86194680D01*
X154930688Y-86397305D01*
X154870989Y-86612570D01*
X154847251Y-86834695D01*
X154847548Y-86839848D01*
X154847548Y-86839851D01*
X154858969Y-87037925D01*
X154860110Y-87057715D01*
X154861247Y-87062761D01*
X154861248Y-87062767D01*
X154872349Y-87112024D01*
X154909222Y-87275639D01*
X154993266Y-87482616D01*
X154995965Y-87487020D01*
X155098107Y-87653701D01*
X155109987Y-87673088D01*
X155256250Y-87841938D01*
X155428126Y-87984632D01*
X155467173Y-88007449D01*
X155501445Y-88027476D01*
X155550169Y-88079114D01*
X155563240Y-88148897D01*
X155536509Y-88214669D01*
X155496055Y-88248027D01*
X155483607Y-88254507D01*
X155479474Y-88257610D01*
X155479471Y-88257612D01*
X155455247Y-88275800D01*
X155304965Y-88388635D01*
X155150629Y-88550138D01*
X155147715Y-88554410D01*
X155147714Y-88554411D01*
X155062556Y-88679249D01*
X155024743Y-88734680D01*
X154930688Y-88937305D01*
X154870989Y-89152570D01*
X154847251Y-89374695D01*
X154847548Y-89379848D01*
X154847548Y-89379851D01*
X154859355Y-89584629D01*
X154860110Y-89597715D01*
X154861247Y-89602761D01*
X154861248Y-89602767D01*
X154873873Y-89658787D01*
X154909222Y-89815639D01*
X154993266Y-90022616D01*
X154995965Y-90027020D01*
X155099962Y-90196728D01*
X155109987Y-90213088D01*
X155256250Y-90381938D01*
X155428126Y-90524632D01*
X155498284Y-90565629D01*
X155501445Y-90567476D01*
X155550169Y-90619114D01*
X155563240Y-90688897D01*
X155536509Y-90754669D01*
X155496055Y-90788027D01*
X155483607Y-90794507D01*
X155479474Y-90797610D01*
X155479471Y-90797612D01*
X155315428Y-90920779D01*
X155304965Y-90928635D01*
X155150629Y-91090138D01*
X155147715Y-91094410D01*
X155147714Y-91094411D01*
X155094070Y-91173050D01*
X155024743Y-91274680D01*
X155000615Y-91326659D01*
X154946744Y-91442716D01*
X154930688Y-91477305D01*
X154870989Y-91692570D01*
X154847251Y-91914695D01*
X154847548Y-91919848D01*
X154847548Y-91919851D01*
X154849124Y-91947180D01*
X154860110Y-92137715D01*
X154861247Y-92142761D01*
X154861248Y-92142767D01*
X154876903Y-92212232D01*
X154909222Y-92355639D01*
X154993266Y-92562616D01*
X155109987Y-92753088D01*
X155256250Y-92921938D01*
X155428126Y-93064632D01*
X155498595Y-93105811D01*
X155501445Y-93107476D01*
X155550169Y-93159114D01*
X155563240Y-93228897D01*
X155536509Y-93294669D01*
X155496055Y-93328027D01*
X155483607Y-93334507D01*
X155479474Y-93337610D01*
X155479471Y-93337612D01*
X155309100Y-93465530D01*
X155304965Y-93468635D01*
X155150629Y-93630138D01*
X155147715Y-93634410D01*
X155147714Y-93634411D01*
X155124416Y-93668565D01*
X155024743Y-93814680D01*
X154977715Y-93915993D01*
X154933985Y-94010203D01*
X154930688Y-94017305D01*
X154870989Y-94232570D01*
X154847251Y-94454695D01*
X154847548Y-94459848D01*
X154847548Y-94459851D01*
X154849207Y-94488621D01*
X154860110Y-94677715D01*
X154861247Y-94682761D01*
X154861248Y-94682767D01*
X154871679Y-94729050D01*
X154909222Y-94895639D01*
X154993266Y-95102616D01*
X154995965Y-95107020D01*
X155083343Y-95249608D01*
X155109987Y-95293088D01*
X155256250Y-95461938D01*
X155366861Y-95553769D01*
X155419130Y-95597163D01*
X155428126Y-95604632D01*
X155498595Y-95645811D01*
X155501445Y-95647476D01*
X155550169Y-95699114D01*
X155563240Y-95768897D01*
X155536509Y-95834669D01*
X155496055Y-95868027D01*
X155483607Y-95874507D01*
X155479474Y-95877610D01*
X155479471Y-95877612D01*
X155309525Y-96005211D01*
X155304965Y-96008635D01*
X155150629Y-96170138D01*
X155147715Y-96174410D01*
X155147714Y-96174411D01*
X155095420Y-96251071D01*
X155024743Y-96354680D01*
X154930688Y-96557305D01*
X154870989Y-96772570D01*
X154847251Y-96994695D01*
X154860110Y-97217715D01*
X154861247Y-97222761D01*
X154861248Y-97222767D01*
X154885304Y-97329508D01*
X154909222Y-97435639D01*
X154993266Y-97642616D01*
X155109987Y-97833088D01*
X155256250Y-98001938D01*
X155428126Y-98144632D01*
X155482605Y-98176467D01*
X155501445Y-98187476D01*
X155550169Y-98239114D01*
X155563240Y-98308897D01*
X155536509Y-98374669D01*
X155496055Y-98408027D01*
X155483607Y-98414507D01*
X155479474Y-98417610D01*
X155479471Y-98417612D01*
X155455247Y-98435800D01*
X155304965Y-98548635D01*
X155150629Y-98710138D01*
X155147715Y-98714410D01*
X155147714Y-98714411D01*
X155108024Y-98772595D01*
X155024743Y-98894680D01*
X154930688Y-99097305D01*
X154870989Y-99312570D01*
X154847251Y-99534695D01*
X154860110Y-99757715D01*
X154861247Y-99762761D01*
X154861248Y-99762767D01*
X154885304Y-99869508D01*
X154909222Y-99975639D01*
X154958752Y-100097617D01*
X154986876Y-100166878D01*
X154993266Y-100182616D01*
X155009693Y-100209423D01*
X155075895Y-100317454D01*
X155109987Y-100373088D01*
X155256250Y-100541938D01*
X155428126Y-100684632D01*
X155498595Y-100725811D01*
X155501445Y-100727476D01*
X155550169Y-100779114D01*
X155563240Y-100848897D01*
X155536509Y-100914669D01*
X155496055Y-100948027D01*
X155483607Y-100954507D01*
X155479474Y-100957610D01*
X155479471Y-100957612D01*
X155455247Y-100975800D01*
X155304965Y-101088635D01*
X155150629Y-101250138D01*
X155147715Y-101254410D01*
X155147714Y-101254411D01*
X155062556Y-101379249D01*
X155024743Y-101434680D01*
X154930688Y-101637305D01*
X154870989Y-101852570D01*
X154847251Y-102074695D01*
X154860110Y-102297715D01*
X154861247Y-102302761D01*
X154861248Y-102302767D01*
X154885304Y-102409508D01*
X154909222Y-102515639D01*
X154993266Y-102722616D01*
X155109987Y-102913088D01*
X155256250Y-103081938D01*
X155428126Y-103224632D01*
X155498595Y-103265811D01*
X155501445Y-103267476D01*
X155550169Y-103319114D01*
X155563240Y-103388897D01*
X155536509Y-103454669D01*
X155496055Y-103488027D01*
X155483607Y-103494507D01*
X155479474Y-103497610D01*
X155479471Y-103497612D01*
X155455247Y-103515800D01*
X155304965Y-103628635D01*
X155150629Y-103790138D01*
X155147715Y-103794410D01*
X155147714Y-103794411D01*
X155062556Y-103919249D01*
X155024743Y-103974680D01*
X154930688Y-104177305D01*
X154870989Y-104392570D01*
X154847251Y-104614695D01*
X154860110Y-104837715D01*
X154861247Y-104842760D01*
X154861966Y-104847877D01*
X154860518Y-104848081D01*
X154856398Y-104912274D01*
X154827119Y-104958200D01*
X146026724Y-113758595D01*
X145964412Y-113792621D01*
X145937629Y-113795500D01*
X141790371Y-113795500D01*
X141722250Y-113775498D01*
X141701276Y-113758595D01*
X138763190Y-110820509D01*
X138732452Y-110770350D01*
X138716119Y-110720082D01*
X138714077Y-110713797D01*
X138704975Y-110698031D01*
X138678134Y-110651542D01*
X138624591Y-110558803D01*
X138597477Y-110528689D01*
X138509258Y-110430712D01*
X138509257Y-110430711D01*
X138504836Y-110425801D01*
X138396404Y-110347020D01*
X138365387Y-110324485D01*
X138365386Y-110324484D01*
X138360045Y-110320604D01*
X138354017Y-110317920D01*
X138354015Y-110317919D01*
X138202577Y-110250495D01*
X138202576Y-110250495D01*
X138196546Y-110247810D01*
X138109016Y-110229205D01*
X138027943Y-110211972D01*
X138027939Y-110211972D01*
X138021486Y-110210600D01*
X137842514Y-110210600D01*
X137836061Y-110211972D01*
X137836057Y-110211972D01*
X137754984Y-110229205D01*
X137667454Y-110247810D01*
X137661424Y-110250495D01*
X137661423Y-110250495D01*
X137509985Y-110317919D01*
X137509983Y-110317920D01*
X137503955Y-110320604D01*
X137498614Y-110324484D01*
X137498613Y-110324485D01*
X137467597Y-110347020D01*
X137359164Y-110425801D01*
X137354743Y-110430711D01*
X137354742Y-110430712D01*
X137266524Y-110528689D01*
X137239409Y-110558803D01*
X137185866Y-110651542D01*
X137159026Y-110698031D01*
X137149923Y-110713797D01*
X137094618Y-110884009D01*
X137093928Y-110890572D01*
X137093928Y-110890573D01*
X137088826Y-110939114D01*
X137075910Y-111062000D01*
X137094618Y-111239991D01*
X137096658Y-111246269D01*
X137096658Y-111246270D01*
X137098641Y-111252373D01*
X137149923Y-111410203D01*
X137239409Y-111565197D01*
X137243827Y-111570104D01*
X137243828Y-111570105D01*
X137265955Y-111594680D01*
X137359164Y-111698199D01*
X137364506Y-111702080D01*
X137364508Y-111702082D01*
X137489109Y-111792610D01*
X137503955Y-111803396D01*
X137509983Y-111806080D01*
X137509985Y-111806081D01*
X137657037Y-111871552D01*
X137694883Y-111897564D01*
X140647724Y-114850405D01*
X140681750Y-114912717D01*
X140676685Y-114983532D01*
X140634138Y-115040368D01*
X140567618Y-115065179D01*
X140558629Y-115065500D01*
X138610371Y-115065500D01*
X138542250Y-115045498D01*
X138521276Y-115028595D01*
X134313190Y-110820509D01*
X134282452Y-110770350D01*
X134266119Y-110720082D01*
X134264077Y-110713797D01*
X134254975Y-110698031D01*
X134228134Y-110651542D01*
X134174591Y-110558803D01*
X134147477Y-110528689D01*
X134059258Y-110430712D01*
X134059257Y-110430711D01*
X134054836Y-110425801D01*
X133946404Y-110347020D01*
X133915387Y-110324485D01*
X133915386Y-110324484D01*
X133910045Y-110320604D01*
X133904017Y-110317920D01*
X133904015Y-110317919D01*
X133752577Y-110250495D01*
X133752576Y-110250495D01*
X133746546Y-110247810D01*
X133659016Y-110229205D01*
X133577943Y-110211972D01*
X133577939Y-110211972D01*
X133571486Y-110210600D01*
X133392514Y-110210600D01*
X133386061Y-110211972D01*
X133386057Y-110211972D01*
X133304984Y-110229205D01*
X133217454Y-110247810D01*
X133211424Y-110250495D01*
X133211423Y-110250495D01*
X133059985Y-110317919D01*
X133059983Y-110317920D01*
X133053955Y-110320604D01*
X133048614Y-110324484D01*
X133048613Y-110324485D01*
X133017597Y-110347020D01*
X132909164Y-110425801D01*
X132904743Y-110430711D01*
X132904742Y-110430712D01*
X132816524Y-110528689D01*
X132789409Y-110558803D01*
X132735866Y-110651542D01*
X132709026Y-110698031D01*
X132699923Y-110713797D01*
X132644618Y-110884009D01*
X132643928Y-110890572D01*
X132643928Y-110890573D01*
X132638826Y-110939114D01*
X132625910Y-111062000D01*
X132644618Y-111239991D01*
X132646658Y-111246269D01*
X132646658Y-111246270D01*
X132648641Y-111252373D01*
X132699923Y-111410203D01*
X132789409Y-111565197D01*
X132793827Y-111570104D01*
X132793828Y-111570105D01*
X132815955Y-111594680D01*
X132909164Y-111698199D01*
X132914506Y-111702080D01*
X132914508Y-111702082D01*
X133039109Y-111792610D01*
X133053955Y-111803396D01*
X133059983Y-111806080D01*
X133059985Y-111806081D01*
X133207037Y-111871552D01*
X133244883Y-111897564D01*
X137660230Y-116312911D01*
X137672616Y-116327323D01*
X137681149Y-116338918D01*
X137681154Y-116338923D01*
X137685492Y-116344818D01*
X137691070Y-116349557D01*
X137691073Y-116349560D01*
X137725768Y-116379035D01*
X137733284Y-116385965D01*
X137738979Y-116391660D01*
X137741861Y-116393940D01*
X137761251Y-116409281D01*
X137764655Y-116412072D01*
X137814703Y-116454591D01*
X137820285Y-116459333D01*
X137826801Y-116462661D01*
X137831850Y-116466028D01*
X137836979Y-116469195D01*
X137842716Y-116473734D01*
X137908875Y-116504655D01*
X137912769Y-116506558D01*
X137977808Y-116539769D01*
X137984916Y-116541508D01*
X137990559Y-116543607D01*
X137996322Y-116545524D01*
X138002950Y-116548622D01*
X138010112Y-116550112D01*
X138010113Y-116550112D01*
X138074412Y-116563486D01*
X138078696Y-116564456D01*
X138149610Y-116581808D01*
X138155212Y-116582156D01*
X138155215Y-116582156D01*
X138160764Y-116582500D01*
X138160762Y-116582536D01*
X138164755Y-116582775D01*
X138168947Y-116583149D01*
X138176115Y-116584640D01*
X138253520Y-116582546D01*
X138256928Y-116582500D01*
X147506930Y-116582500D01*
X147525880Y-116583933D01*
X147540115Y-116586099D01*
X147540119Y-116586099D01*
X147547349Y-116587199D01*
X147554641Y-116586606D01*
X147554644Y-116586606D01*
X147600018Y-116582915D01*
X147610233Y-116582500D01*
X147618293Y-116582500D01*
X147635680Y-116580473D01*
X147646507Y-116579211D01*
X147650882Y-116578778D01*
X147716339Y-116573454D01*
X147716342Y-116573453D01*
X147723637Y-116572860D01*
X147730601Y-116570604D01*
X147736560Y-116569413D01*
X147742415Y-116568029D01*
X147749681Y-116567182D01*
X147818327Y-116542265D01*
X147822455Y-116540848D01*
X147884936Y-116520607D01*
X147884938Y-116520606D01*
X147891899Y-116518351D01*
X147898154Y-116514555D01*
X147903628Y-116512049D01*
X147909058Y-116509330D01*
X147915937Y-116506833D01*
X147947101Y-116486401D01*
X147976976Y-116466814D01*
X147980680Y-116464477D01*
X148043107Y-116426595D01*
X148051484Y-116419197D01*
X148051508Y-116419224D01*
X148054500Y-116416571D01*
X148057733Y-116413868D01*
X148063852Y-116409856D01*
X148117128Y-116353617D01*
X148119506Y-116351175D01*
X154644656Y-109826025D01*
X154706968Y-109791999D01*
X154777783Y-109797064D01*
X154834619Y-109839611D01*
X154859542Y-109907865D01*
X154860110Y-109917715D01*
X154861247Y-109922761D01*
X154861248Y-109922767D01*
X154885304Y-110029508D01*
X154909222Y-110135639D01*
X154993266Y-110342616D01*
X155109987Y-110533088D01*
X155256250Y-110701938D01*
X155428126Y-110844632D01*
X155484767Y-110877730D01*
X155501445Y-110887476D01*
X155550169Y-110939114D01*
X155563240Y-111008897D01*
X155536509Y-111074669D01*
X155496055Y-111108027D01*
X155483607Y-111114507D01*
X155479474Y-111117610D01*
X155479471Y-111117612D01*
X155309100Y-111245530D01*
X155304965Y-111248635D01*
X155150629Y-111410138D01*
X155147715Y-111414410D01*
X155147714Y-111414411D01*
X155062556Y-111539249D01*
X155024743Y-111594680D01*
X155000060Y-111647856D01*
X154938593Y-111780276D01*
X154930688Y-111797305D01*
X154870989Y-112012570D01*
X154847251Y-112234695D01*
X154860110Y-112457715D01*
X154861247Y-112462761D01*
X154861248Y-112462767D01*
X154885304Y-112569508D01*
X154909222Y-112675639D01*
X154993266Y-112882616D01*
X155109987Y-113073088D01*
X155256250Y-113241938D01*
X155428126Y-113384632D01*
X155498595Y-113425811D01*
X155501445Y-113427476D01*
X155550169Y-113479114D01*
X155563240Y-113548897D01*
X155536509Y-113614669D01*
X155496055Y-113648027D01*
X155483607Y-113654507D01*
X155479474Y-113657610D01*
X155479471Y-113657612D01*
X155309100Y-113785530D01*
X155304965Y-113788635D01*
X155150629Y-113950138D01*
X155147715Y-113954410D01*
X155147714Y-113954411D01*
X155062556Y-114079249D01*
X155024743Y-114134680D01*
X154994833Y-114199116D01*
X154960716Y-114272616D01*
X154930688Y-114337305D01*
X154870989Y-114552570D01*
X154847251Y-114774695D01*
X154847548Y-114779848D01*
X154847548Y-114779851D01*
X154855209Y-114912717D01*
X154860110Y-114997715D01*
X154861247Y-115002761D01*
X154861248Y-115002767D01*
X154871815Y-115049655D01*
X154909222Y-115215639D01*
X154993266Y-115422616D01*
X155109987Y-115613088D01*
X155256250Y-115781938D01*
X155428126Y-115924632D01*
X155498595Y-115965811D01*
X155501445Y-115967476D01*
X155550169Y-116019114D01*
X155563240Y-116088897D01*
X155536509Y-116154669D01*
X155496055Y-116188027D01*
X155483607Y-116194507D01*
X155479474Y-116197610D01*
X155479471Y-116197612D01*
X155455247Y-116215800D01*
X155304965Y-116328635D01*
X155256802Y-116379035D01*
X155174069Y-116465610D01*
X155150629Y-116490138D01*
X155147715Y-116494410D01*
X155147714Y-116494411D01*
X155087436Y-116582775D01*
X155024743Y-116674680D01*
X154930688Y-116877305D01*
X154870989Y-117092570D01*
X154847251Y-117314695D01*
X154847548Y-117319848D01*
X154847548Y-117319851D01*
X154853971Y-117431240D01*
X154860110Y-117537715D01*
X154861247Y-117542761D01*
X154861248Y-117542767D01*
X154885304Y-117649508D01*
X154909222Y-117755639D01*
X154993266Y-117962616D01*
X155109987Y-118153088D01*
X155256250Y-118321938D01*
X155428126Y-118464632D01*
X155462352Y-118484632D01*
X155501445Y-118507476D01*
X155550169Y-118559114D01*
X155563240Y-118628897D01*
X155536509Y-118694669D01*
X155496055Y-118728027D01*
X155483607Y-118734507D01*
X155479474Y-118737610D01*
X155479471Y-118737612D01*
X155309100Y-118865530D01*
X155304965Y-118868635D01*
X155265203Y-118910243D01*
X155193729Y-118985037D01*
X155150629Y-119030138D01*
X155147720Y-119034403D01*
X155147714Y-119034411D01*
X155062556Y-119159249D01*
X155024743Y-119214680D01*
X154930688Y-119417305D01*
X154870989Y-119632570D01*
X154847251Y-119854695D01*
X154847548Y-119859848D01*
X154847548Y-119859851D01*
X154853011Y-119954590D01*
X154860110Y-120077715D01*
X154861247Y-120082761D01*
X154861248Y-120082767D01*
X154881119Y-120170939D01*
X154909222Y-120295639D01*
X154993266Y-120502616D01*
X155044019Y-120585438D01*
X155107291Y-120688688D01*
X155109987Y-120693088D01*
X155256250Y-120861938D01*
X155337235Y-120929173D01*
X155343719Y-120934556D01*
X155383354Y-120993458D01*
X155384852Y-121064439D01*
X155347738Y-121124962D01*
X155283793Y-121155811D01*
X155263234Y-121157500D01*
X121359326Y-121157500D01*
X121291205Y-121137498D01*
X121244712Y-121083842D01*
X121234608Y-121013568D01*
X121264102Y-120948988D01*
X121278000Y-120935260D01*
X121281646Y-120932179D01*
X121285860Y-120929173D01*
X121444096Y-120771489D01*
X121447116Y-120767287D01*
X121571435Y-120594277D01*
X121574453Y-120590077D01*
X121595320Y-120547857D01*
X121671136Y-120394453D01*
X121671137Y-120394451D01*
X121673430Y-120389811D01*
X121738370Y-120176069D01*
X121767529Y-119954590D01*
X121769156Y-119888000D01*
X121750852Y-119665361D01*
X121696431Y-119448702D01*
X121607354Y-119243840D01*
X121486014Y-119056277D01*
X121335670Y-118891051D01*
X121331619Y-118887852D01*
X121331615Y-118887848D01*
X121164414Y-118755800D01*
X121164410Y-118755798D01*
X121160359Y-118752598D01*
X120964789Y-118644638D01*
X120959920Y-118642914D01*
X120959916Y-118642912D01*
X120759087Y-118571795D01*
X120759083Y-118571794D01*
X120754212Y-118570069D01*
X120749119Y-118569162D01*
X120749116Y-118569161D01*
X120539373Y-118531800D01*
X120539367Y-118531799D01*
X120534284Y-118530894D01*
X120460452Y-118529992D01*
X120316081Y-118528228D01*
X120316079Y-118528228D01*
X120310911Y-118528165D01*
X120090091Y-118561955D01*
X119877756Y-118631357D01*
X119679607Y-118734507D01*
X119675474Y-118737610D01*
X119675471Y-118737612D01*
X119505100Y-118865530D01*
X119500965Y-118868635D01*
X119461203Y-118910243D01*
X119389729Y-118985037D01*
X119346629Y-119030138D01*
X119239201Y-119187621D01*
X119184293Y-119232621D01*
X119113768Y-119240792D01*
X119050021Y-119209538D01*
X119029324Y-119185054D01*
X118948822Y-119060617D01*
X118948820Y-119060614D01*
X118946014Y-119056277D01*
X118795670Y-118891051D01*
X118791619Y-118887852D01*
X118791615Y-118887848D01*
X118624414Y-118755800D01*
X118624410Y-118755798D01*
X118620359Y-118752598D01*
X118424789Y-118644638D01*
X118419920Y-118642914D01*
X118419916Y-118642912D01*
X118219087Y-118571795D01*
X118219083Y-118571794D01*
X118214212Y-118570069D01*
X118209119Y-118569162D01*
X118209116Y-118569161D01*
X117999373Y-118531800D01*
X117999367Y-118531799D01*
X117994284Y-118530894D01*
X117920452Y-118529992D01*
X117776081Y-118528228D01*
X117776079Y-118528228D01*
X117770911Y-118528165D01*
X117550091Y-118561955D01*
X117337756Y-118631357D01*
X117139607Y-118734507D01*
X117135474Y-118737610D01*
X117135471Y-118737612D01*
X116965100Y-118865530D01*
X116960965Y-118868635D01*
X116921203Y-118910243D01*
X116849729Y-118985037D01*
X116806629Y-119030138D01*
X116699201Y-119187621D01*
X116644293Y-119232621D01*
X116573768Y-119240792D01*
X116510021Y-119209538D01*
X116489324Y-119185054D01*
X116408822Y-119060617D01*
X116408820Y-119060614D01*
X116406014Y-119056277D01*
X116255670Y-118891051D01*
X116251619Y-118887852D01*
X116251615Y-118887848D01*
X116084414Y-118755800D01*
X116084410Y-118755798D01*
X116080359Y-118752598D01*
X115884789Y-118644638D01*
X115879920Y-118642914D01*
X115879916Y-118642912D01*
X115679087Y-118571795D01*
X115679083Y-118571794D01*
X115674212Y-118570069D01*
X115669119Y-118569162D01*
X115669116Y-118569161D01*
X115459373Y-118531800D01*
X115459367Y-118531799D01*
X115454284Y-118530894D01*
X115380452Y-118529992D01*
X115236081Y-118528228D01*
X115236079Y-118528228D01*
X115230911Y-118528165D01*
X115010091Y-118561955D01*
X114797756Y-118631357D01*
X114599607Y-118734507D01*
X114595474Y-118737610D01*
X114595471Y-118737612D01*
X114425100Y-118865530D01*
X114420965Y-118868635D01*
X114364537Y-118927684D01*
X114340283Y-118953064D01*
X114278759Y-118988494D01*
X114207846Y-118985037D01*
X114150060Y-118943791D01*
X114131207Y-118910243D01*
X114089767Y-118799703D01*
X114086615Y-118791295D01*
X113999261Y-118674739D01*
X113882705Y-118587385D01*
X113746316Y-118536255D01*
X113684134Y-118529500D01*
X111887866Y-118529500D01*
X111825684Y-118536255D01*
X111689295Y-118587385D01*
X111572739Y-118674739D01*
X111485385Y-118791295D01*
X111434255Y-118927684D01*
X111427500Y-118989866D01*
X111427500Y-120786134D01*
X111434255Y-120848316D01*
X111439362Y-120861938D01*
X111485385Y-120984705D01*
X111482560Y-120985764D01*
X111494495Y-121040360D01*
X111469752Y-121106906D01*
X111412960Y-121149511D01*
X111368807Y-121157500D01*
X105282500Y-121157500D01*
X105214379Y-121137498D01*
X105167886Y-121083842D01*
X105156500Y-121031500D01*
X105156500Y-85226134D01*
X108877500Y-85226134D01*
X108884255Y-85288316D01*
X108935385Y-85424705D01*
X109022739Y-85541261D01*
X109139295Y-85628615D01*
X109275684Y-85679745D01*
X109337866Y-85686500D01*
X111134134Y-85686500D01*
X111196316Y-85679745D01*
X111332705Y-85628615D01*
X111449261Y-85541261D01*
X111536615Y-85424705D01*
X111556309Y-85372171D01*
X111580598Y-85307382D01*
X111623240Y-85250618D01*
X111689802Y-85225918D01*
X111759150Y-85241126D01*
X111793817Y-85269114D01*
X111822250Y-85301938D01*
X111883556Y-85352835D01*
X111988081Y-85439613D01*
X111994126Y-85444632D01*
X112187000Y-85557338D01*
X112395692Y-85637030D01*
X112400760Y-85638061D01*
X112400763Y-85638062D01*
X112505466Y-85659364D01*
X112614597Y-85681567D01*
X112619772Y-85681757D01*
X112619774Y-85681757D01*
X112832673Y-85689564D01*
X112832677Y-85689564D01*
X112837837Y-85689753D01*
X112842957Y-85689097D01*
X112842959Y-85689097D01*
X113054288Y-85662025D01*
X113054289Y-85662025D01*
X113059416Y-85661368D01*
X113102924Y-85648315D01*
X113268429Y-85598661D01*
X113268434Y-85598659D01*
X113273384Y-85597174D01*
X113473994Y-85498896D01*
X113655860Y-85369173D01*
X113814096Y-85211489D01*
X113817116Y-85207287D01*
X113944453Y-85030077D01*
X113945776Y-85031028D01*
X113992645Y-84987857D01*
X114062580Y-84975625D01*
X114128026Y-85003144D01*
X114155875Y-85034994D01*
X114159165Y-85040362D01*
X114215987Y-85133088D01*
X114362250Y-85301938D01*
X114423556Y-85352835D01*
X114528081Y-85439613D01*
X114534126Y-85444632D01*
X114727000Y-85557338D01*
X114935692Y-85637030D01*
X114940760Y-85638061D01*
X114940763Y-85638062D01*
X115045466Y-85659364D01*
X115154597Y-85681567D01*
X115159772Y-85681757D01*
X115159774Y-85681757D01*
X115372673Y-85689564D01*
X115372677Y-85689564D01*
X115377837Y-85689753D01*
X115382957Y-85689097D01*
X115382959Y-85689097D01*
X115594288Y-85662025D01*
X115594289Y-85662025D01*
X115599416Y-85661368D01*
X115642924Y-85648315D01*
X115808429Y-85598661D01*
X115808434Y-85598659D01*
X115813384Y-85597174D01*
X116013994Y-85498896D01*
X116195860Y-85369173D01*
X116354096Y-85211489D01*
X116357116Y-85207287D01*
X116484453Y-85030077D01*
X116485776Y-85031028D01*
X116532645Y-84987857D01*
X116602580Y-84975625D01*
X116668026Y-85003144D01*
X116695875Y-85034994D01*
X116699165Y-85040362D01*
X116755987Y-85133088D01*
X116902250Y-85301938D01*
X116963556Y-85352835D01*
X117068081Y-85439613D01*
X117074126Y-85444632D01*
X117267000Y-85557338D01*
X117475692Y-85637030D01*
X117480760Y-85638061D01*
X117480763Y-85638062D01*
X117585466Y-85659364D01*
X117694597Y-85681567D01*
X117699772Y-85681757D01*
X117699774Y-85681757D01*
X117912673Y-85689564D01*
X117912677Y-85689564D01*
X117917837Y-85689753D01*
X117922957Y-85689097D01*
X117922959Y-85689097D01*
X118134288Y-85662025D01*
X118134289Y-85662025D01*
X118139416Y-85661368D01*
X118182924Y-85648315D01*
X118348429Y-85598661D01*
X118348434Y-85598659D01*
X118353384Y-85597174D01*
X118553994Y-85498896D01*
X118735860Y-85369173D01*
X118894096Y-85211489D01*
X118897116Y-85207287D01*
X119024453Y-85030077D01*
X119025776Y-85031028D01*
X119072645Y-84987857D01*
X119142580Y-84975625D01*
X119208026Y-85003144D01*
X119235875Y-85034994D01*
X119239165Y-85040362D01*
X119295987Y-85133088D01*
X119345206Y-85189907D01*
X119356737Y-85203219D01*
X119386220Y-85267804D01*
X119387500Y-85285717D01*
X119387500Y-87511500D01*
X119367498Y-87579621D01*
X119313842Y-87626114D01*
X119261500Y-87637500D01*
X113599843Y-87637500D01*
X113586236Y-87636763D01*
X113554738Y-87633341D01*
X113554733Y-87633341D01*
X113548612Y-87632676D01*
X113522362Y-87634973D01*
X113498612Y-87637050D01*
X113493786Y-87637379D01*
X113491314Y-87637500D01*
X113488231Y-87637500D01*
X113476262Y-87638674D01*
X113445494Y-87641690D01*
X113444181Y-87641812D01*
X113399916Y-87645685D01*
X113351587Y-87649913D01*
X113346468Y-87651400D01*
X113341167Y-87651920D01*
X113252166Y-87678791D01*
X113251033Y-87679126D01*
X113167586Y-87703370D01*
X113167582Y-87703372D01*
X113161664Y-87705091D01*
X113156932Y-87707544D01*
X113151831Y-87709084D01*
X113146388Y-87711978D01*
X113069740Y-87752731D01*
X113068574Y-87753343D01*
X112991547Y-87793271D01*
X112986074Y-87796108D01*
X112981911Y-87799431D01*
X112977204Y-87801934D01*
X112905082Y-87860755D01*
X112904226Y-87861446D01*
X112865027Y-87892738D01*
X112862523Y-87895242D01*
X112861805Y-87895884D01*
X112857472Y-87899585D01*
X112823938Y-87926935D01*
X112820011Y-87931682D01*
X112820009Y-87931684D01*
X112794713Y-87962262D01*
X112786723Y-87971042D01*
X110836621Y-89921145D01*
X110826478Y-89930247D01*
X110796975Y-89953968D01*
X110793008Y-89958696D01*
X110764709Y-89992421D01*
X110761528Y-89996069D01*
X110759885Y-89997881D01*
X110757691Y-90000075D01*
X110730358Y-90033349D01*
X110729696Y-90034147D01*
X110669846Y-90105474D01*
X110667278Y-90110144D01*
X110663897Y-90114261D01*
X110632860Y-90172145D01*
X110620023Y-90196086D01*
X110619394Y-90197245D01*
X110577538Y-90273381D01*
X110577535Y-90273389D01*
X110574567Y-90278787D01*
X110572955Y-90283869D01*
X110570438Y-90288563D01*
X110543238Y-90377531D01*
X110542918Y-90378559D01*
X110514765Y-90467306D01*
X110514171Y-90472602D01*
X110512613Y-90477698D01*
X110507846Y-90524632D01*
X110503218Y-90570187D01*
X110503089Y-90571393D01*
X110497500Y-90621227D01*
X110497500Y-90624754D01*
X110497445Y-90625739D01*
X110496998Y-90631419D01*
X110492626Y-90674462D01*
X110493206Y-90680593D01*
X110496941Y-90720109D01*
X110497500Y-90731967D01*
X110497500Y-95442157D01*
X110496763Y-95455764D01*
X110492676Y-95493388D01*
X110493213Y-95499523D01*
X110497050Y-95543388D01*
X110497379Y-95548214D01*
X110497500Y-95550686D01*
X110497500Y-95553769D01*
X110497801Y-95556837D01*
X110501690Y-95596506D01*
X110501812Y-95597819D01*
X110505685Y-95642084D01*
X110509913Y-95690413D01*
X110511400Y-95695532D01*
X110511920Y-95700833D01*
X110538791Y-95789834D01*
X110539126Y-95790967D01*
X110561515Y-95868027D01*
X110565091Y-95880336D01*
X110567544Y-95885068D01*
X110569084Y-95890169D01*
X110571978Y-95895612D01*
X110612731Y-95972260D01*
X110613343Y-95973426D01*
X110653271Y-96050453D01*
X110656108Y-96055926D01*
X110659431Y-96060089D01*
X110661934Y-96064796D01*
X110720755Y-96136918D01*
X110721446Y-96137774D01*
X110752738Y-96176973D01*
X110755242Y-96179477D01*
X110755884Y-96180195D01*
X110759585Y-96184528D01*
X110786935Y-96218062D01*
X110791682Y-96221989D01*
X110791684Y-96221991D01*
X110822262Y-96247287D01*
X110831042Y-96255277D01*
X129789595Y-115213829D01*
X129823621Y-115276141D01*
X129826500Y-115302924D01*
X129826500Y-116406381D01*
X129806498Y-116474502D01*
X129791594Y-116493432D01*
X129775629Y-116510138D01*
X129649743Y-116694680D01*
X129634003Y-116728590D01*
X129564972Y-116877305D01*
X129555688Y-116897305D01*
X129495989Y-117112570D01*
X129472251Y-117334695D01*
X129472548Y-117339848D01*
X129472548Y-117339851D01*
X129478011Y-117434590D01*
X129485110Y-117557715D01*
X129486247Y-117562761D01*
X129486248Y-117562767D01*
X129506119Y-117650939D01*
X129534222Y-117775639D01*
X129618266Y-117982616D01*
X129734987Y-118173088D01*
X129738367Y-118176990D01*
X129744054Y-118183555D01*
X129881250Y-118341938D01*
X130053126Y-118484632D01*
X130246000Y-118597338D01*
X130250825Y-118599180D01*
X130250826Y-118599181D01*
X130297945Y-118617174D01*
X130454692Y-118677030D01*
X130459760Y-118678061D01*
X130459763Y-118678062D01*
X130541390Y-118694669D01*
X130673597Y-118721567D01*
X130678772Y-118721757D01*
X130678774Y-118721757D01*
X130891673Y-118729564D01*
X130891677Y-118729564D01*
X130896837Y-118729753D01*
X130901957Y-118729097D01*
X130901959Y-118729097D01*
X131113288Y-118702025D01*
X131113289Y-118702025D01*
X131118416Y-118701368D01*
X131140745Y-118694669D01*
X131327429Y-118638661D01*
X131327434Y-118638659D01*
X131332384Y-118637174D01*
X131532994Y-118538896D01*
X131714860Y-118409173D01*
X131873096Y-118251489D01*
X131887468Y-118231489D01*
X132000435Y-118074277D01*
X132003453Y-118070077D01*
X132102430Y-117869811D01*
X132167370Y-117656069D01*
X132196529Y-117434590D01*
X132198156Y-117368000D01*
X132179852Y-117145361D01*
X132125431Y-116928702D01*
X132036354Y-116723840D01*
X131915014Y-116536277D01*
X131903430Y-116523546D01*
X131876306Y-116493737D01*
X131845254Y-116429891D01*
X131843500Y-116408938D01*
X131843500Y-114894843D01*
X131844237Y-114881236D01*
X131847659Y-114849738D01*
X131847659Y-114849733D01*
X131848324Y-114843612D01*
X131843950Y-114793612D01*
X131843621Y-114788786D01*
X131843500Y-114786314D01*
X131843500Y-114783231D01*
X131842160Y-114769562D01*
X131839310Y-114740494D01*
X131839188Y-114739181D01*
X131831623Y-114652718D01*
X131831087Y-114646587D01*
X131829600Y-114641468D01*
X131829080Y-114636167D01*
X131802209Y-114547166D01*
X131801874Y-114546033D01*
X131777630Y-114462586D01*
X131777628Y-114462582D01*
X131775909Y-114456664D01*
X131773456Y-114451932D01*
X131771916Y-114446831D01*
X131728269Y-114364740D01*
X131727657Y-114363574D01*
X131687729Y-114286547D01*
X131684892Y-114281074D01*
X131681569Y-114276911D01*
X131679066Y-114272204D01*
X131620245Y-114200082D01*
X131619554Y-114199226D01*
X131588262Y-114160027D01*
X131585758Y-114157523D01*
X131585116Y-114156805D01*
X131581415Y-114152472D01*
X131554065Y-114118938D01*
X131518737Y-114089712D01*
X131509958Y-114081723D01*
X112551405Y-95123171D01*
X112517379Y-95060859D01*
X112514500Y-95034076D01*
X112514500Y-93662000D01*
X114825910Y-93662000D01*
X114844618Y-93839991D01*
X114899923Y-94010203D01*
X114989409Y-94165197D01*
X114993827Y-94170104D01*
X114993828Y-94170105D01*
X115054697Y-94237707D01*
X115109164Y-94298199D01*
X115253955Y-94403396D01*
X115259983Y-94406080D01*
X115259985Y-94406081D01*
X115407037Y-94471552D01*
X115444883Y-94497564D01*
X121004230Y-100056911D01*
X121016616Y-100071323D01*
X121025149Y-100082918D01*
X121025154Y-100082923D01*
X121029492Y-100088818D01*
X121035070Y-100093557D01*
X121035073Y-100093560D01*
X121069768Y-100123035D01*
X121077284Y-100129965D01*
X121082979Y-100135660D01*
X121085861Y-100137940D01*
X121105251Y-100153281D01*
X121108655Y-100156072D01*
X121158703Y-100198591D01*
X121164285Y-100203333D01*
X121170801Y-100206661D01*
X121175850Y-100210028D01*
X121180979Y-100213195D01*
X121186716Y-100217734D01*
X121252875Y-100248655D01*
X121256769Y-100250558D01*
X121321808Y-100283769D01*
X121328916Y-100285508D01*
X121334559Y-100287607D01*
X121340322Y-100289524D01*
X121346950Y-100292622D01*
X121354112Y-100294112D01*
X121354113Y-100294112D01*
X121418412Y-100307486D01*
X121422696Y-100308456D01*
X121493610Y-100325808D01*
X121499212Y-100326156D01*
X121499215Y-100326156D01*
X121504764Y-100326500D01*
X121504762Y-100326536D01*
X121508755Y-100326775D01*
X121512947Y-100327149D01*
X121520115Y-100328640D01*
X121597520Y-100326546D01*
X121600928Y-100326500D01*
X138362930Y-100326500D01*
X138381880Y-100327933D01*
X138396115Y-100330099D01*
X138396119Y-100330099D01*
X138403349Y-100331199D01*
X138410641Y-100330606D01*
X138410644Y-100330606D01*
X138456018Y-100326915D01*
X138466233Y-100326500D01*
X138474293Y-100326500D01*
X138491680Y-100324473D01*
X138502507Y-100323211D01*
X138506882Y-100322778D01*
X138572339Y-100317454D01*
X138572342Y-100317453D01*
X138579637Y-100316860D01*
X138586601Y-100314604D01*
X138592560Y-100313413D01*
X138598415Y-100312029D01*
X138605681Y-100311182D01*
X138674327Y-100286265D01*
X138678455Y-100284848D01*
X138740936Y-100264607D01*
X138740938Y-100264606D01*
X138747899Y-100262351D01*
X138754154Y-100258555D01*
X138759628Y-100256049D01*
X138765058Y-100253330D01*
X138771937Y-100250833D01*
X138778058Y-100246820D01*
X138832976Y-100210814D01*
X138836680Y-100208477D01*
X138899107Y-100170595D01*
X138907484Y-100163197D01*
X138907508Y-100163224D01*
X138910500Y-100160571D01*
X138913733Y-100157868D01*
X138919852Y-100153856D01*
X138973128Y-100097617D01*
X138975506Y-100095175D01*
X143744911Y-95325770D01*
X143759323Y-95313384D01*
X143770918Y-95304851D01*
X143770923Y-95304846D01*
X143776818Y-95300508D01*
X143781557Y-95294930D01*
X143781560Y-95294927D01*
X143811035Y-95260232D01*
X143817965Y-95252716D01*
X143823661Y-95247020D01*
X143825924Y-95244159D01*
X143825929Y-95244154D01*
X143841285Y-95224744D01*
X143844074Y-95221342D01*
X143886596Y-95171291D01*
X143886597Y-95171290D01*
X143891333Y-95165715D01*
X143894661Y-95159198D01*
X143898027Y-95154150D01*
X143901190Y-95149028D01*
X143905735Y-95143284D01*
X143936664Y-95077105D01*
X143938563Y-95073221D01*
X143971769Y-95008192D01*
X143973510Y-95001077D01*
X143975613Y-94995422D01*
X143977522Y-94989683D01*
X143980622Y-94983050D01*
X143995491Y-94911565D01*
X143996461Y-94907282D01*
X144012473Y-94841844D01*
X144013808Y-94836390D01*
X144014500Y-94825236D01*
X144014535Y-94825238D01*
X144014775Y-94821266D01*
X144015152Y-94817045D01*
X144016641Y-94809885D01*
X144014546Y-94732458D01*
X144014500Y-94729050D01*
X144014500Y-88015002D01*
X144034502Y-87946881D01*
X144059504Y-87918484D01*
X144063529Y-87915106D01*
X144068038Y-87911949D01*
X144223749Y-87756238D01*
X144227075Y-87751489D01*
X144346899Y-87580362D01*
X144346900Y-87580360D01*
X144350056Y-87575853D01*
X144352379Y-87570871D01*
X144352382Y-87570866D01*
X144440795Y-87381261D01*
X144443120Y-87376276D01*
X144500115Y-87163571D01*
X144519307Y-86944200D01*
X144500115Y-86724829D01*
X144443120Y-86512124D01*
X144376690Y-86369663D01*
X144352382Y-86317534D01*
X144352379Y-86317529D01*
X144350056Y-86312547D01*
X144333840Y-86289388D01*
X144226908Y-86136673D01*
X144226906Y-86136670D01*
X144223749Y-86132162D01*
X144068038Y-85976451D01*
X144041968Y-85958196D01*
X143944681Y-85890075D01*
X143887654Y-85850144D01*
X143882672Y-85847821D01*
X143882667Y-85847818D01*
X143755232Y-85788395D01*
X143701947Y-85741478D01*
X143682486Y-85673201D01*
X143703028Y-85605241D01*
X143755232Y-85560005D01*
X143882667Y-85500582D01*
X143882672Y-85500579D01*
X143887654Y-85498256D01*
X144068038Y-85371949D01*
X144223749Y-85216238D01*
X144226937Y-85211686D01*
X144346899Y-85040362D01*
X144346900Y-85040360D01*
X144350056Y-85035853D01*
X144352379Y-85030871D01*
X144352382Y-85030866D01*
X144440795Y-84841261D01*
X144443120Y-84836276D01*
X144500115Y-84623571D01*
X144519307Y-84404200D01*
X144518173Y-84391240D01*
X144509092Y-84287439D01*
X144523081Y-84217835D01*
X144545518Y-84187363D01*
X146030911Y-82701970D01*
X146045323Y-82689584D01*
X146056918Y-82681051D01*
X146056923Y-82681046D01*
X146062818Y-82676708D01*
X146067557Y-82671130D01*
X146067560Y-82671127D01*
X146097035Y-82636432D01*
X146103965Y-82628916D01*
X146109660Y-82623221D01*
X146127281Y-82600949D01*
X146130072Y-82597545D01*
X146172591Y-82547497D01*
X146172592Y-82547495D01*
X146177333Y-82541915D01*
X146180661Y-82535399D01*
X146184028Y-82530350D01*
X146187195Y-82525221D01*
X146191734Y-82519484D01*
X146222655Y-82453325D01*
X146224561Y-82449425D01*
X146248463Y-82402616D01*
X146257769Y-82384392D01*
X146259508Y-82377284D01*
X146261607Y-82371641D01*
X146263524Y-82365878D01*
X146266622Y-82359250D01*
X146281487Y-82287783D01*
X146282457Y-82283499D01*
X146298473Y-82218045D01*
X146299808Y-82212590D01*
X146300500Y-82201436D01*
X146300536Y-82201438D01*
X146300775Y-82197445D01*
X146301149Y-82193253D01*
X146302640Y-82186085D01*
X146300546Y-82108679D01*
X146300500Y-82105272D01*
X146300500Y-80125867D01*
X146320502Y-80057746D01*
X146354228Y-80022655D01*
X146386300Y-80000198D01*
X146548198Y-79838300D01*
X146679523Y-79650749D01*
X146681846Y-79645767D01*
X146681849Y-79645762D01*
X146773961Y-79448225D01*
X146773961Y-79448224D01*
X146776284Y-79443243D01*
X146835543Y-79222087D01*
X146855498Y-78994000D01*
X146835543Y-78765913D01*
X146834110Y-78760564D01*
X146777707Y-78550067D01*
X146777706Y-78550065D01*
X146776284Y-78544757D01*
X146739372Y-78465598D01*
X146681849Y-78342238D01*
X146681846Y-78342233D01*
X146679523Y-78337251D01*
X146548198Y-78149700D01*
X146386300Y-77987802D01*
X146381792Y-77984645D01*
X146381789Y-77984643D01*
X146265927Y-77903516D01*
X146198749Y-77856477D01*
X146193767Y-77854154D01*
X146193762Y-77854151D01*
X145996225Y-77762039D01*
X145996224Y-77762039D01*
X145991243Y-77759716D01*
X145985935Y-77758294D01*
X145985933Y-77758293D01*
X145775402Y-77701881D01*
X145775400Y-77701881D01*
X145770087Y-77700457D01*
X145542000Y-77680502D01*
X145313913Y-77700457D01*
X145308600Y-77701881D01*
X145308598Y-77701881D01*
X145098067Y-77758293D01*
X145098065Y-77758294D01*
X145092757Y-77759716D01*
X145087776Y-77762039D01*
X145087775Y-77762039D01*
X144890238Y-77854151D01*
X144890233Y-77854154D01*
X144885251Y-77856477D01*
X144818073Y-77903516D01*
X144702211Y-77984643D01*
X144702208Y-77984645D01*
X144697700Y-77987802D01*
X144535802Y-78149700D01*
X144513345Y-78181771D01*
X144457890Y-78226099D01*
X144410133Y-78235500D01*
X144387867Y-78235500D01*
X144319746Y-78215498D01*
X144284655Y-78181772D01*
X144262198Y-78149700D01*
X144100300Y-77987802D01*
X144095792Y-77984645D01*
X144095789Y-77984643D01*
X143979927Y-77903516D01*
X143912749Y-77856477D01*
X143907767Y-77854154D01*
X143907762Y-77854151D01*
X143710225Y-77762039D01*
X143710224Y-77762039D01*
X143705243Y-77759716D01*
X143699935Y-77758294D01*
X143699933Y-77758293D01*
X143489402Y-77701881D01*
X143489400Y-77701881D01*
X143484087Y-77700457D01*
X143256000Y-77680502D01*
X143027913Y-77700457D01*
X142862375Y-77744813D01*
X142791400Y-77743123D01*
X142732604Y-77703329D01*
X142704656Y-77638065D01*
X142716429Y-77568051D01*
X142740670Y-77534011D01*
X142993010Y-77281671D01*
X143055322Y-77247645D01*
X143093087Y-77245245D01*
X143250525Y-77259019D01*
X143256000Y-77259498D01*
X143484087Y-77239543D01*
X143489400Y-77238119D01*
X143489402Y-77238119D01*
X143699933Y-77181707D01*
X143699935Y-77181706D01*
X143705243Y-77180284D01*
X143751670Y-77158635D01*
X143907762Y-77085849D01*
X143907767Y-77085846D01*
X143912749Y-77083523D01*
X144017611Y-77010098D01*
X144095789Y-76955357D01*
X144095792Y-76955355D01*
X144100300Y-76952198D01*
X144262198Y-76790300D01*
X144284655Y-76758229D01*
X144340110Y-76713901D01*
X144387867Y-76704500D01*
X144410133Y-76704500D01*
X144478254Y-76724502D01*
X144513345Y-76758228D01*
X144535802Y-76790300D01*
X144697700Y-76952198D01*
X144702208Y-76955355D01*
X144702211Y-76955357D01*
X144780389Y-77010098D01*
X144885251Y-77083523D01*
X144890233Y-77085846D01*
X144890238Y-77085849D01*
X145046330Y-77158635D01*
X145092757Y-77180284D01*
X145098065Y-77181706D01*
X145098067Y-77181707D01*
X145308598Y-77238119D01*
X145308600Y-77238119D01*
X145313913Y-77239543D01*
X145542000Y-77259498D01*
X145770087Y-77239543D01*
X145775400Y-77238119D01*
X145775402Y-77238119D01*
X145985933Y-77181707D01*
X145985935Y-77181706D01*
X145991243Y-77180284D01*
X146037670Y-77158635D01*
X146193762Y-77085849D01*
X146193767Y-77085846D01*
X146198749Y-77083523D01*
X146303611Y-77010098D01*
X146381789Y-76955357D01*
X146381792Y-76955355D01*
X146386300Y-76952198D01*
X146548198Y-76790300D01*
X146559199Y-76774590D01*
X146652857Y-76640832D01*
X146679523Y-76602749D01*
X146681846Y-76597767D01*
X146681849Y-76597762D01*
X146773961Y-76400225D01*
X146773961Y-76400224D01*
X146776284Y-76395243D01*
X146823090Y-76220564D01*
X146834119Y-76179402D01*
X146834119Y-76179400D01*
X146835543Y-76174087D01*
X146855498Y-75946000D01*
X146835543Y-75717913D01*
X146828820Y-75692821D01*
X146777707Y-75502067D01*
X146777706Y-75502065D01*
X146776284Y-75496757D01*
X146751803Y-75444256D01*
X146681849Y-75294238D01*
X146681846Y-75294233D01*
X146679523Y-75289251D01*
X146576373Y-75141938D01*
X146551357Y-75106211D01*
X146551355Y-75106208D01*
X146548198Y-75101700D01*
X146386300Y-74939802D01*
X146381792Y-74936645D01*
X146381789Y-74936643D01*
X146286723Y-74870077D01*
X146198749Y-74808477D01*
X146193767Y-74806154D01*
X146193762Y-74806151D01*
X145996225Y-74714039D01*
X145996224Y-74714039D01*
X145991243Y-74711716D01*
X145985935Y-74710294D01*
X145985933Y-74710293D01*
X145775402Y-74653881D01*
X145775400Y-74653881D01*
X145770087Y-74652457D01*
X145542000Y-74632502D01*
X145313913Y-74652457D01*
X145308600Y-74653881D01*
X145308598Y-74653881D01*
X145098067Y-74710293D01*
X145098065Y-74710294D01*
X145092757Y-74711716D01*
X145087776Y-74714039D01*
X145087775Y-74714039D01*
X144890238Y-74806151D01*
X144890233Y-74806154D01*
X144885251Y-74808477D01*
X144797277Y-74870077D01*
X144702211Y-74936643D01*
X144702208Y-74936645D01*
X144697700Y-74939802D01*
X144535802Y-75101700D01*
X144513345Y-75133771D01*
X144457890Y-75178099D01*
X144410133Y-75187500D01*
X144387867Y-75187500D01*
X144319746Y-75167498D01*
X144284655Y-75133772D01*
X144262198Y-75101700D01*
X144100300Y-74939802D01*
X144095792Y-74936645D01*
X144095789Y-74936643D01*
X144000723Y-74870077D01*
X143912749Y-74808477D01*
X143907767Y-74806154D01*
X143907762Y-74806151D01*
X143710225Y-74714039D01*
X143710224Y-74714039D01*
X143705243Y-74711716D01*
X143699935Y-74710294D01*
X143699933Y-74710293D01*
X143489402Y-74653881D01*
X143489400Y-74653881D01*
X143484087Y-74652457D01*
X143256000Y-74632502D01*
X143027913Y-74652457D01*
X142862375Y-74696813D01*
X142791400Y-74695123D01*
X142732604Y-74655329D01*
X142704656Y-74590065D01*
X142716429Y-74520051D01*
X142740670Y-74486011D01*
X142993010Y-74233671D01*
X143055322Y-74199645D01*
X143093087Y-74197245D01*
X143250525Y-74211019D01*
X143256000Y-74211498D01*
X143484087Y-74191543D01*
X143489400Y-74190119D01*
X143489402Y-74190119D01*
X143699933Y-74133707D01*
X143699935Y-74133706D01*
X143705243Y-74132284D01*
X143710225Y-74129961D01*
X143907762Y-74037849D01*
X143907767Y-74037846D01*
X143912749Y-74035523D01*
X144048240Y-73940651D01*
X144095789Y-73907357D01*
X144095792Y-73907355D01*
X144100300Y-73904198D01*
X144262198Y-73742300D01*
X144284655Y-73710229D01*
X144340110Y-73665901D01*
X144387867Y-73656500D01*
X144410133Y-73656500D01*
X144478254Y-73676502D01*
X144513345Y-73710228D01*
X144535802Y-73742300D01*
X144697700Y-73904198D01*
X144702208Y-73907355D01*
X144702211Y-73907357D01*
X144749760Y-73940651D01*
X144885251Y-74035523D01*
X144890233Y-74037846D01*
X144890238Y-74037849D01*
X145087775Y-74129961D01*
X145092757Y-74132284D01*
X145098065Y-74133706D01*
X145098067Y-74133707D01*
X145308598Y-74190119D01*
X145308600Y-74190119D01*
X145313913Y-74191543D01*
X145542000Y-74211498D01*
X145770087Y-74191543D01*
X145775400Y-74190119D01*
X145775402Y-74190119D01*
X145985933Y-74133707D01*
X145985935Y-74133706D01*
X145991243Y-74132284D01*
X145996225Y-74129961D01*
X146193762Y-74037849D01*
X146193767Y-74037846D01*
X146198749Y-74035523D01*
X146334240Y-73940651D01*
X146381789Y-73907357D01*
X146381792Y-73907355D01*
X146386300Y-73904198D01*
X146548198Y-73742300D01*
X146555803Y-73731440D01*
X146658587Y-73584648D01*
X146679523Y-73554749D01*
X146681846Y-73549767D01*
X146681849Y-73549762D01*
X146773961Y-73352225D01*
X146773961Y-73352224D01*
X146776284Y-73347243D01*
X146779223Y-73336277D01*
X146834119Y-73131402D01*
X146834119Y-73131400D01*
X146835543Y-73126087D01*
X146855498Y-72898000D01*
X146835543Y-72669913D01*
X146791187Y-72504375D01*
X146792877Y-72433400D01*
X146832671Y-72374604D01*
X146897935Y-72346656D01*
X146967949Y-72358429D01*
X147001989Y-72382670D01*
X148810595Y-74191276D01*
X148844621Y-74253588D01*
X148847500Y-74280371D01*
X148847500Y-81513797D01*
X148827498Y-81581918D01*
X148773842Y-81628411D01*
X148735108Y-81639060D01*
X148722914Y-81640385D01*
X148695684Y-81643343D01*
X148559295Y-81694473D01*
X148442739Y-81781827D01*
X148355385Y-81898383D01*
X148304255Y-82034772D01*
X148297500Y-82096954D01*
X148297500Y-83793222D01*
X148304255Y-83855404D01*
X148355385Y-83991793D01*
X148442739Y-84108349D01*
X148559295Y-84195703D01*
X148695684Y-84246833D01*
X148694954Y-84248779D01*
X148747205Y-84278633D01*
X148780021Y-84341591D01*
X148773591Y-84412295D01*
X148745502Y-84455088D01*
X148599802Y-84600788D01*
X148468477Y-84788339D01*
X148466154Y-84793321D01*
X148466151Y-84793326D01*
X148443799Y-84841261D01*
X148371716Y-84995845D01*
X148370294Y-85001153D01*
X148370293Y-85001155D01*
X148314250Y-85210308D01*
X148312457Y-85217001D01*
X148292502Y-85445088D01*
X148312457Y-85673175D01*
X148313881Y-85678488D01*
X148313881Y-85678490D01*
X148321796Y-85708027D01*
X148371716Y-85894331D01*
X148374039Y-85899312D01*
X148374039Y-85899313D01*
X148466151Y-86096850D01*
X148466154Y-86096855D01*
X148468477Y-86101837D01*
X148599802Y-86289388D01*
X148761700Y-86451286D01*
X148793771Y-86473743D01*
X148838099Y-86529198D01*
X148847500Y-86576955D01*
X148847500Y-106567629D01*
X148827498Y-106635750D01*
X148810595Y-106656724D01*
X145200724Y-110266595D01*
X145138412Y-110300621D01*
X145111629Y-110303500D01*
X142798411Y-110303500D01*
X142747163Y-110292607D01*
X142652582Y-110250497D01*
X142652579Y-110250496D01*
X142646546Y-110247810D01*
X142609494Y-110239934D01*
X142477943Y-110211972D01*
X142477939Y-110211972D01*
X142471486Y-110210600D01*
X142292514Y-110210600D01*
X142286061Y-110211972D01*
X142286057Y-110211972D01*
X142204984Y-110229205D01*
X142117454Y-110247810D01*
X142111424Y-110250495D01*
X142111423Y-110250495D01*
X141959985Y-110317919D01*
X141959983Y-110317920D01*
X141953955Y-110320604D01*
X141948614Y-110324484D01*
X141948613Y-110324485D01*
X141917597Y-110347020D01*
X141809164Y-110425801D01*
X141804743Y-110430711D01*
X141804742Y-110430712D01*
X141716524Y-110528689D01*
X141689409Y-110558803D01*
X141635866Y-110651542D01*
X141609026Y-110698031D01*
X141599923Y-110713797D01*
X141544618Y-110884009D01*
X141543928Y-110890572D01*
X141543928Y-110890573D01*
X141538826Y-110939114D01*
X141525910Y-111062000D01*
X141544618Y-111239991D01*
X141546658Y-111246269D01*
X141546658Y-111246270D01*
X141548641Y-111252373D01*
X141599923Y-111410203D01*
X141689409Y-111565197D01*
X141693827Y-111570104D01*
X141693828Y-111570105D01*
X141715955Y-111594680D01*
X141809164Y-111698199D01*
X141814506Y-111702080D01*
X141814508Y-111702082D01*
X141939109Y-111792610D01*
X141953955Y-111803396D01*
X141959983Y-111806080D01*
X141959985Y-111806081D01*
X142111419Y-111873503D01*
X142117454Y-111876190D01*
X142204984Y-111894795D01*
X142286057Y-111912028D01*
X142286061Y-111912028D01*
X142292514Y-111913400D01*
X142471486Y-111913400D01*
X142477939Y-111912028D01*
X142477943Y-111912028D01*
X142609494Y-111884066D01*
X142646546Y-111876190D01*
X142652579Y-111873504D01*
X142652582Y-111873503D01*
X142747163Y-111831393D01*
X142798411Y-111820500D01*
X145410930Y-111820500D01*
X145429880Y-111821933D01*
X145444115Y-111824099D01*
X145444119Y-111824099D01*
X145451349Y-111825199D01*
X145458641Y-111824606D01*
X145458644Y-111824606D01*
X145504018Y-111820915D01*
X145514233Y-111820500D01*
X145522293Y-111820500D01*
X145535583Y-111818951D01*
X145550507Y-111817211D01*
X145554882Y-111816778D01*
X145620339Y-111811454D01*
X145620342Y-111811453D01*
X145627637Y-111810860D01*
X145634601Y-111808604D01*
X145640560Y-111807413D01*
X145646415Y-111806029D01*
X145653681Y-111805182D01*
X145722327Y-111780265D01*
X145726455Y-111778848D01*
X145788936Y-111758607D01*
X145788938Y-111758606D01*
X145795899Y-111756351D01*
X145802154Y-111752555D01*
X145807628Y-111750049D01*
X145813058Y-111747330D01*
X145819937Y-111744833D01*
X145880976Y-111704814D01*
X145884680Y-111702477D01*
X145947107Y-111664595D01*
X145955484Y-111657197D01*
X145955508Y-111657224D01*
X145958500Y-111654571D01*
X145961733Y-111651868D01*
X145967852Y-111647856D01*
X146021128Y-111591617D01*
X146023506Y-111589175D01*
X150094911Y-107517770D01*
X150109323Y-107505384D01*
X150120918Y-107496851D01*
X150120923Y-107496846D01*
X150126818Y-107492508D01*
X150131557Y-107486930D01*
X150131560Y-107486927D01*
X150161035Y-107452232D01*
X150167965Y-107444716D01*
X150173661Y-107439020D01*
X150175924Y-107436159D01*
X150175929Y-107436154D01*
X150191285Y-107416744D01*
X150194074Y-107413342D01*
X150236596Y-107363291D01*
X150236597Y-107363290D01*
X150241333Y-107357715D01*
X150244661Y-107351198D01*
X150248027Y-107346150D01*
X150251190Y-107341028D01*
X150255735Y-107335284D01*
X150286664Y-107269105D01*
X150288563Y-107265221D01*
X150321769Y-107200192D01*
X150323510Y-107193077D01*
X150325613Y-107187422D01*
X150327522Y-107181683D01*
X150330622Y-107175050D01*
X150345491Y-107103565D01*
X150346461Y-107099282D01*
X150363808Y-107028390D01*
X150364500Y-107017236D01*
X150364535Y-107017238D01*
X150364775Y-107013266D01*
X150365152Y-107009045D01*
X150366641Y-107001885D01*
X150364546Y-106924458D01*
X150364500Y-106921050D01*
X150364500Y-86576955D01*
X150384502Y-86508834D01*
X150418228Y-86473743D01*
X150450300Y-86451286D01*
X150612198Y-86289388D01*
X150743523Y-86101837D01*
X150745846Y-86096855D01*
X150745849Y-86096850D01*
X150837961Y-85899313D01*
X150837961Y-85899312D01*
X150840284Y-85894331D01*
X150890205Y-85708027D01*
X150898119Y-85678490D01*
X150898119Y-85678488D01*
X150899543Y-85673175D01*
X150919498Y-85445088D01*
X150899543Y-85217001D01*
X150897750Y-85210308D01*
X150841707Y-85001155D01*
X150841706Y-85001153D01*
X150840284Y-84995845D01*
X150768201Y-84841261D01*
X150745849Y-84793326D01*
X150745846Y-84793321D01*
X150743523Y-84788339D01*
X150612198Y-84600788D01*
X150466498Y-84455088D01*
X150432472Y-84392776D01*
X150437537Y-84321961D01*
X150480084Y-84265125D01*
X150516737Y-84247956D01*
X150516316Y-84246833D01*
X150652705Y-84195703D01*
X150769261Y-84108349D01*
X150856615Y-83991793D01*
X150907745Y-83855404D01*
X150914500Y-83793222D01*
X150914500Y-82096954D01*
X150907745Y-82034772D01*
X150856615Y-81898383D01*
X150769261Y-81781827D01*
X150652705Y-81694473D01*
X150516316Y-81643343D01*
X150489086Y-81640385D01*
X150476892Y-81639060D01*
X150411330Y-81611818D01*
X150370904Y-81553454D01*
X150364500Y-81513797D01*
X150364500Y-73981070D01*
X150365933Y-73962120D01*
X150368099Y-73947885D01*
X150368099Y-73947881D01*
X150369199Y-73940651D01*
X150364915Y-73887982D01*
X150364500Y-73877767D01*
X150364500Y-73869707D01*
X150361209Y-73841480D01*
X150360778Y-73837121D01*
X150355453Y-73771660D01*
X150354860Y-73764364D01*
X150352605Y-73757403D01*
X150351418Y-73751463D01*
X150350029Y-73745588D01*
X150349182Y-73738319D01*
X150324264Y-73669670D01*
X150322847Y-73665542D01*
X150302607Y-73603064D01*
X150302606Y-73603062D01*
X150300351Y-73596101D01*
X150296555Y-73589846D01*
X150294049Y-73584372D01*
X150291330Y-73578942D01*
X150288833Y-73572063D01*
X150280437Y-73559257D01*
X150248814Y-73511024D01*
X150246467Y-73507305D01*
X150238806Y-73494680D01*
X150208595Y-73444893D01*
X150201197Y-73436516D01*
X150201224Y-73436492D01*
X150198571Y-73433500D01*
X150195868Y-73430267D01*
X150191856Y-73424148D01*
X150135617Y-73370872D01*
X150133175Y-73368494D01*
X146877671Y-70112990D01*
X146843645Y-70050678D01*
X146841245Y-70012913D01*
X146855019Y-69855475D01*
X146855498Y-69850000D01*
X146835543Y-69621913D01*
X146776284Y-69400757D01*
X146773961Y-69395775D01*
X146681849Y-69198238D01*
X146681846Y-69198233D01*
X146679523Y-69193251D01*
X146548198Y-69005700D01*
X146386300Y-68843802D01*
X146381792Y-68840645D01*
X146381789Y-68840643D01*
X146303611Y-68785902D01*
X146198749Y-68712477D01*
X146193767Y-68710154D01*
X146193762Y-68710151D01*
X145996225Y-68618039D01*
X145996224Y-68618039D01*
X145991243Y-68615716D01*
X145985935Y-68614294D01*
X145985933Y-68614293D01*
X145775402Y-68557881D01*
X145775400Y-68557881D01*
X145770087Y-68556457D01*
X145542000Y-68536502D01*
X145313913Y-68556457D01*
X145308600Y-68557881D01*
X145308598Y-68557881D01*
X145098067Y-68614293D01*
X145098065Y-68614294D01*
X145092757Y-68615716D01*
X145087776Y-68618039D01*
X145087775Y-68618039D01*
X144890238Y-68710151D01*
X144890233Y-68710154D01*
X144885251Y-68712477D01*
X144780389Y-68785902D01*
X144702211Y-68840643D01*
X144702208Y-68840645D01*
X144697700Y-68843802D01*
X144535802Y-69005700D01*
X144513345Y-69037771D01*
X144457890Y-69082099D01*
X144410133Y-69091500D01*
X144387867Y-69091500D01*
X144319746Y-69071498D01*
X144284655Y-69037772D01*
X144262198Y-69005700D01*
X144100300Y-68843802D01*
X144095792Y-68840645D01*
X144095789Y-68840643D01*
X144017611Y-68785902D01*
X143912749Y-68712477D01*
X143907767Y-68710154D01*
X143907762Y-68710151D01*
X143710225Y-68618039D01*
X143710224Y-68618039D01*
X143705243Y-68615716D01*
X143699935Y-68614294D01*
X143699933Y-68614293D01*
X143489402Y-68557881D01*
X143489400Y-68557881D01*
X143484087Y-68556457D01*
X143256000Y-68536502D01*
X143027913Y-68556457D01*
X143022600Y-68557881D01*
X143022598Y-68557881D01*
X142812067Y-68614293D01*
X142812065Y-68614294D01*
X142806757Y-68615716D01*
X142801776Y-68618039D01*
X142801775Y-68618039D01*
X142604238Y-68710151D01*
X142604233Y-68710154D01*
X142599251Y-68712477D01*
X142494389Y-68785902D01*
X142416211Y-68840643D01*
X142416208Y-68840645D01*
X142411700Y-68843802D01*
X142249802Y-69005700D01*
X142118477Y-69193251D01*
X142116154Y-69198233D01*
X142116151Y-69198238D01*
X142024039Y-69395775D01*
X142021716Y-69400757D01*
X141962457Y-69621913D01*
X141942502Y-69850000D01*
X141962457Y-70078087D01*
X141963881Y-70083400D01*
X141963881Y-70083402D01*
X142019461Y-70290826D01*
X142021716Y-70299243D01*
X142024039Y-70304224D01*
X142024039Y-70304225D01*
X142116151Y-70501762D01*
X142116154Y-70501767D01*
X142118477Y-70506749D01*
X142249802Y-70694300D01*
X142411700Y-70856198D01*
X142416208Y-70859355D01*
X142416211Y-70859357D01*
X142473697Y-70899609D01*
X142599251Y-70987523D01*
X142604233Y-70989846D01*
X142604238Y-70989849D01*
X142790261Y-71076592D01*
X142806757Y-71084284D01*
X142812065Y-71085706D01*
X142812067Y-71085707D01*
X143022598Y-71142119D01*
X143022600Y-71142119D01*
X143027913Y-71143543D01*
X143256000Y-71163498D01*
X143484087Y-71143543D01*
X143489400Y-71142119D01*
X143489402Y-71142119D01*
X143699933Y-71085707D01*
X143699935Y-71085706D01*
X143705243Y-71084284D01*
X143721739Y-71076592D01*
X143907762Y-70989849D01*
X143907767Y-70989846D01*
X143912749Y-70987523D01*
X144038303Y-70899609D01*
X144095789Y-70859357D01*
X144095792Y-70859355D01*
X144100300Y-70856198D01*
X144262198Y-70694300D01*
X144284655Y-70662229D01*
X144340110Y-70617901D01*
X144387867Y-70608500D01*
X144410133Y-70608500D01*
X144478254Y-70628502D01*
X144513345Y-70662228D01*
X144535802Y-70694300D01*
X144697700Y-70856198D01*
X144702208Y-70859355D01*
X144702211Y-70859357D01*
X144759697Y-70899609D01*
X144885251Y-70987523D01*
X144890233Y-70989846D01*
X144890238Y-70989849D01*
X145076261Y-71076592D01*
X145092757Y-71084284D01*
X145098065Y-71085706D01*
X145098067Y-71085707D01*
X145308598Y-71142119D01*
X145308600Y-71142119D01*
X145313913Y-71143543D01*
X145542000Y-71163498D01*
X145547475Y-71163019D01*
X145704913Y-71149245D01*
X145774518Y-71163234D01*
X145804990Y-71185671D01*
X146057330Y-71438011D01*
X146091356Y-71500323D01*
X146086291Y-71571138D01*
X146043744Y-71627974D01*
X145977224Y-71652785D01*
X145935626Y-71648813D01*
X145770087Y-71604457D01*
X145542000Y-71584502D01*
X145313913Y-71604457D01*
X145308600Y-71605881D01*
X145308598Y-71605881D01*
X145098067Y-71662293D01*
X145098065Y-71662294D01*
X145092757Y-71663716D01*
X145087776Y-71666039D01*
X145087775Y-71666039D01*
X144890238Y-71758151D01*
X144890233Y-71758154D01*
X144885251Y-71760477D01*
X144810888Y-71812547D01*
X144702211Y-71888643D01*
X144702208Y-71888645D01*
X144697700Y-71891802D01*
X144535802Y-72053700D01*
X144513345Y-72085771D01*
X144457890Y-72130099D01*
X144410133Y-72139500D01*
X144387867Y-72139500D01*
X144319746Y-72119498D01*
X144284655Y-72085772D01*
X144262198Y-72053700D01*
X144100300Y-71891802D01*
X144095792Y-71888645D01*
X144095789Y-71888643D01*
X143987112Y-71812547D01*
X143912749Y-71760477D01*
X143907767Y-71758154D01*
X143907762Y-71758151D01*
X143710225Y-71666039D01*
X143710224Y-71666039D01*
X143705243Y-71663716D01*
X143699935Y-71662294D01*
X143699933Y-71662293D01*
X143489402Y-71605881D01*
X143489400Y-71605881D01*
X143484087Y-71604457D01*
X143256000Y-71584502D01*
X143027913Y-71604457D01*
X143022600Y-71605881D01*
X143022598Y-71605881D01*
X142812067Y-71662293D01*
X142812065Y-71662294D01*
X142806757Y-71663716D01*
X142801776Y-71666039D01*
X142801775Y-71666039D01*
X142604238Y-71758151D01*
X142604233Y-71758154D01*
X142599251Y-71760477D01*
X142524888Y-71812547D01*
X142416211Y-71888643D01*
X142416208Y-71888645D01*
X142411700Y-71891802D01*
X142249802Y-72053700D01*
X142246645Y-72058208D01*
X142246643Y-72058211D01*
X142240912Y-72066396D01*
X142118477Y-72241251D01*
X142116154Y-72246233D01*
X142116151Y-72246238D01*
X142028877Y-72433400D01*
X142021716Y-72448757D01*
X142020294Y-72454065D01*
X142020293Y-72454067D01*
X141986354Y-72580727D01*
X141962457Y-72669913D01*
X141942502Y-72898000D01*
X141942981Y-72903475D01*
X141956755Y-73060913D01*
X141942766Y-73130518D01*
X141920329Y-73160990D01*
X139719089Y-75362230D01*
X139704677Y-75374616D01*
X139693082Y-75383149D01*
X139693077Y-75383154D01*
X139687182Y-75387492D01*
X139682443Y-75393070D01*
X139682440Y-75393073D01*
X139652965Y-75427768D01*
X139646035Y-75435284D01*
X139640340Y-75440979D01*
X139638060Y-75443861D01*
X139622719Y-75463251D01*
X139619928Y-75466655D01*
X139579137Y-75514669D01*
X139572667Y-75522285D01*
X139569339Y-75528801D01*
X139565972Y-75533850D01*
X139562805Y-75538979D01*
X139558266Y-75544716D01*
X139527345Y-75610875D01*
X139525442Y-75614769D01*
X139492231Y-75679808D01*
X139490492Y-75686916D01*
X139488393Y-75692559D01*
X139486476Y-75698322D01*
X139483378Y-75704950D01*
X139481888Y-75712112D01*
X139481888Y-75712113D01*
X139468514Y-75776412D01*
X139467544Y-75780696D01*
X139450192Y-75851610D01*
X139449500Y-75862764D01*
X139449464Y-75862762D01*
X139449225Y-75866755D01*
X139448851Y-75870947D01*
X139447360Y-75878115D01*
X139447558Y-75885432D01*
X139449454Y-75955521D01*
X139449500Y-75958928D01*
X139449500Y-82005829D01*
X139429498Y-82073950D01*
X139412595Y-82094924D01*
X138392837Y-83114682D01*
X138330525Y-83148708D01*
X138292761Y-83151108D01*
X138181476Y-83141372D01*
X138181475Y-83141372D01*
X138176000Y-83140893D01*
X137956629Y-83160085D01*
X137743924Y-83217080D01*
X137713440Y-83231295D01*
X137549334Y-83307818D01*
X137549329Y-83307821D01*
X137544347Y-83310144D01*
X137539840Y-83313300D01*
X137539838Y-83313301D01*
X137368473Y-83433292D01*
X137368470Y-83433294D01*
X137363962Y-83436451D01*
X137208251Y-83592162D01*
X137205094Y-83596670D01*
X137205092Y-83596673D01*
X137144057Y-83683840D01*
X137081944Y-83772547D01*
X137079621Y-83777529D01*
X137079618Y-83777534D01*
X137044610Y-83852610D01*
X136988880Y-83972124D01*
X136931885Y-84184829D01*
X136912693Y-84404200D01*
X136931885Y-84623571D01*
X136988880Y-84836276D01*
X136991205Y-84841261D01*
X137079618Y-85030866D01*
X137079621Y-85030871D01*
X137081944Y-85035853D01*
X137085100Y-85040360D01*
X137085101Y-85040362D01*
X137205064Y-85211686D01*
X137208251Y-85216238D01*
X137363962Y-85371949D01*
X137544346Y-85498256D01*
X137549328Y-85500579D01*
X137549333Y-85500582D01*
X137676768Y-85560005D01*
X137730053Y-85606922D01*
X137749514Y-85675199D01*
X137728972Y-85743159D01*
X137676768Y-85788395D01*
X137549334Y-85847818D01*
X137549329Y-85847821D01*
X137544347Y-85850144D01*
X137539840Y-85853300D01*
X137539838Y-85853301D01*
X137368473Y-85973292D01*
X137368470Y-85973294D01*
X137363962Y-85976451D01*
X137208251Y-86132162D01*
X137205094Y-86136670D01*
X137205092Y-86136673D01*
X137098160Y-86289388D01*
X137081944Y-86312547D01*
X137079621Y-86317529D01*
X137079618Y-86317534D01*
X137055310Y-86369663D01*
X136988880Y-86512124D01*
X136931885Y-86724829D01*
X136912693Y-86944200D01*
X136931885Y-87163571D01*
X136988880Y-87376276D01*
X136991205Y-87381261D01*
X137079618Y-87570866D01*
X137079621Y-87570871D01*
X137081944Y-87575853D01*
X137085100Y-87580360D01*
X137085101Y-87580362D01*
X137204926Y-87751489D01*
X137208251Y-87756238D01*
X137363962Y-87911949D01*
X137368471Y-87915106D01*
X137372496Y-87918484D01*
X137411819Y-87977595D01*
X137417500Y-88015002D01*
X137417500Y-90565629D01*
X137397498Y-90633750D01*
X137380595Y-90654724D01*
X133580724Y-94454595D01*
X133518412Y-94488621D01*
X133491629Y-94491500D01*
X126536371Y-94491500D01*
X126468250Y-94471498D01*
X126447276Y-94454595D01*
X125413190Y-93420509D01*
X125382452Y-93370350D01*
X125377725Y-93355800D01*
X125364077Y-93313797D01*
X125353034Y-93294669D01*
X125309806Y-93219797D01*
X125274591Y-93158803D01*
X125192150Y-93067242D01*
X125159258Y-93030712D01*
X125159257Y-93030711D01*
X125154836Y-93025801D01*
X125108549Y-92992171D01*
X125015387Y-92924485D01*
X125015386Y-92924484D01*
X125010045Y-92920604D01*
X125004017Y-92917920D01*
X125004015Y-92917919D01*
X124852577Y-92850495D01*
X124852576Y-92850495D01*
X124846546Y-92847810D01*
X124759016Y-92829205D01*
X124677943Y-92811972D01*
X124677939Y-92811972D01*
X124671486Y-92810600D01*
X124492514Y-92810600D01*
X124486061Y-92811972D01*
X124486057Y-92811972D01*
X124404984Y-92829205D01*
X124317454Y-92847810D01*
X124311424Y-92850495D01*
X124311423Y-92850495D01*
X124159985Y-92917919D01*
X124159983Y-92917920D01*
X124153955Y-92920604D01*
X124148614Y-92924484D01*
X124148613Y-92924485D01*
X124055452Y-92992171D01*
X124009164Y-93025801D01*
X124004743Y-93030711D01*
X124004742Y-93030712D01*
X123971851Y-93067242D01*
X123889409Y-93158803D01*
X123854194Y-93219797D01*
X123810967Y-93294669D01*
X123799923Y-93313797D01*
X123744618Y-93484009D01*
X123743928Y-93490572D01*
X123743928Y-93490573D01*
X123726600Y-93655435D01*
X123725910Y-93662000D01*
X123744618Y-93839991D01*
X123799923Y-94010203D01*
X123889409Y-94165197D01*
X123893827Y-94170104D01*
X123893828Y-94170105D01*
X123954697Y-94237707D01*
X124009164Y-94298199D01*
X124153955Y-94403396D01*
X124159983Y-94406080D01*
X124159985Y-94406081D01*
X124307037Y-94471552D01*
X124344883Y-94497564D01*
X125586230Y-95738911D01*
X125598616Y-95753323D01*
X125607149Y-95764918D01*
X125607154Y-95764923D01*
X125611492Y-95770818D01*
X125617070Y-95775557D01*
X125617073Y-95775560D01*
X125651768Y-95805035D01*
X125659284Y-95811965D01*
X125664979Y-95817660D01*
X125667861Y-95819940D01*
X125687251Y-95835281D01*
X125690655Y-95838072D01*
X125738901Y-95879060D01*
X125746285Y-95885333D01*
X125752801Y-95888661D01*
X125757850Y-95892028D01*
X125762979Y-95895195D01*
X125768716Y-95899734D01*
X125834875Y-95930655D01*
X125838769Y-95932558D01*
X125903808Y-95965769D01*
X125910916Y-95967508D01*
X125916559Y-95969607D01*
X125922322Y-95971524D01*
X125928950Y-95974622D01*
X125936112Y-95976112D01*
X125936113Y-95976112D01*
X126000412Y-95989486D01*
X126004696Y-95990456D01*
X126075610Y-96007808D01*
X126081212Y-96008156D01*
X126081215Y-96008156D01*
X126086764Y-96008500D01*
X126086762Y-96008536D01*
X126090755Y-96008775D01*
X126094947Y-96009149D01*
X126102115Y-96010640D01*
X126179520Y-96008546D01*
X126182928Y-96008500D01*
X133790930Y-96008500D01*
X133809880Y-96009933D01*
X133824115Y-96012099D01*
X133824119Y-96012099D01*
X133831349Y-96013199D01*
X133838641Y-96012606D01*
X133838644Y-96012606D01*
X133884018Y-96008915D01*
X133894233Y-96008500D01*
X133902293Y-96008500D01*
X133919680Y-96006473D01*
X133930507Y-96005211D01*
X133934882Y-96004778D01*
X134000339Y-95999454D01*
X134000342Y-95999453D01*
X134007637Y-95998860D01*
X134014601Y-95996604D01*
X134020560Y-95995413D01*
X134026415Y-95994029D01*
X134033681Y-95993182D01*
X134102327Y-95968265D01*
X134106455Y-95966848D01*
X134168936Y-95946607D01*
X134168938Y-95946606D01*
X134175899Y-95944351D01*
X134182154Y-95940555D01*
X134187628Y-95938049D01*
X134193058Y-95935330D01*
X134199937Y-95932833D01*
X134206058Y-95928820D01*
X134260976Y-95892814D01*
X134264680Y-95890477D01*
X134327107Y-95852595D01*
X134335484Y-95845197D01*
X134335508Y-95845224D01*
X134338500Y-95842571D01*
X134341733Y-95839868D01*
X134347852Y-95835856D01*
X134401128Y-95779617D01*
X134403506Y-95777175D01*
X138664911Y-91515770D01*
X138679323Y-91503384D01*
X138690918Y-91494851D01*
X138690923Y-91494846D01*
X138696818Y-91490508D01*
X138701557Y-91484930D01*
X138701560Y-91484927D01*
X138731035Y-91450232D01*
X138737965Y-91442716D01*
X138743660Y-91437021D01*
X138748518Y-91430880D01*
X138761281Y-91414749D01*
X138764072Y-91411345D01*
X138806591Y-91361297D01*
X138806592Y-91361295D01*
X138811333Y-91355715D01*
X138814661Y-91349199D01*
X138818028Y-91344150D01*
X138821195Y-91339021D01*
X138825734Y-91333284D01*
X138856655Y-91267125D01*
X138858561Y-91263225D01*
X138891769Y-91198192D01*
X138893508Y-91191084D01*
X138895607Y-91185441D01*
X138897524Y-91179678D01*
X138900622Y-91173050D01*
X138915487Y-91101583D01*
X138916457Y-91097299D01*
X138920738Y-91079804D01*
X138933808Y-91026390D01*
X138934500Y-91015236D01*
X138934536Y-91015238D01*
X138934775Y-91011245D01*
X138935149Y-91007053D01*
X138936640Y-90999885D01*
X138934546Y-90922479D01*
X138934500Y-90919072D01*
X138934500Y-88015002D01*
X138954502Y-87946881D01*
X138979504Y-87918484D01*
X138983529Y-87915106D01*
X138988038Y-87911949D01*
X139143749Y-87756238D01*
X139147075Y-87751489D01*
X139266899Y-87580362D01*
X139266900Y-87580360D01*
X139270056Y-87575853D01*
X139272379Y-87570871D01*
X139272382Y-87570866D01*
X139360795Y-87381261D01*
X139363120Y-87376276D01*
X139420115Y-87163571D01*
X139439307Y-86944200D01*
X139420115Y-86724829D01*
X139363120Y-86512124D01*
X139296690Y-86369663D01*
X139272382Y-86317534D01*
X139272379Y-86317529D01*
X139270056Y-86312547D01*
X139253840Y-86289388D01*
X139146908Y-86136673D01*
X139146906Y-86136670D01*
X139143749Y-86132162D01*
X138988038Y-85976451D01*
X138961968Y-85958196D01*
X138864681Y-85890075D01*
X138807654Y-85850144D01*
X138802672Y-85847821D01*
X138802667Y-85847818D01*
X138675232Y-85788395D01*
X138621947Y-85741478D01*
X138602486Y-85673201D01*
X138623028Y-85605241D01*
X138675232Y-85560005D01*
X138802667Y-85500582D01*
X138802672Y-85500579D01*
X138807654Y-85498256D01*
X138988038Y-85371949D01*
X139143749Y-85216238D01*
X139146937Y-85211686D01*
X139266899Y-85040362D01*
X139266900Y-85040360D01*
X139270056Y-85035853D01*
X139272379Y-85030871D01*
X139272382Y-85030866D01*
X139360795Y-84841261D01*
X139363120Y-84836276D01*
X139420115Y-84623571D01*
X139439307Y-84404200D01*
X139438173Y-84391240D01*
X139429092Y-84287439D01*
X139443081Y-84217835D01*
X139465518Y-84187363D01*
X140504405Y-83148476D01*
X140566717Y-83114450D01*
X140637532Y-83119515D01*
X140694368Y-83162062D01*
X140719179Y-83228582D01*
X140719500Y-83237571D01*
X140719500Y-91327630D01*
X140699498Y-91395751D01*
X140682595Y-91416725D01*
X135358724Y-96740595D01*
X135296412Y-96774621D01*
X135269629Y-96777500D01*
X124372371Y-96777500D01*
X124304250Y-96757498D01*
X124283276Y-96740595D01*
X120963190Y-93420509D01*
X120932452Y-93370350D01*
X120927725Y-93355800D01*
X120914077Y-93313797D01*
X120903034Y-93294669D01*
X120859806Y-93219797D01*
X120824591Y-93158803D01*
X120742150Y-93067242D01*
X120709258Y-93030712D01*
X120709257Y-93030711D01*
X120704836Y-93025801D01*
X120658549Y-92992171D01*
X120565387Y-92924485D01*
X120565386Y-92924484D01*
X120560045Y-92920604D01*
X120554017Y-92917920D01*
X120554015Y-92917919D01*
X120402577Y-92850495D01*
X120402576Y-92850495D01*
X120396546Y-92847810D01*
X120309016Y-92829205D01*
X120227943Y-92811972D01*
X120227939Y-92811972D01*
X120221486Y-92810600D01*
X120042514Y-92810600D01*
X120036061Y-92811972D01*
X120036057Y-92811972D01*
X119954984Y-92829205D01*
X119867454Y-92847810D01*
X119861424Y-92850495D01*
X119861423Y-92850495D01*
X119709985Y-92917919D01*
X119709983Y-92917920D01*
X119703955Y-92920604D01*
X119698614Y-92924484D01*
X119698613Y-92924485D01*
X119605452Y-92992171D01*
X119559164Y-93025801D01*
X119554743Y-93030711D01*
X119554742Y-93030712D01*
X119521851Y-93067242D01*
X119439409Y-93158803D01*
X119404194Y-93219797D01*
X119360967Y-93294669D01*
X119349923Y-93313797D01*
X119294618Y-93484009D01*
X119293928Y-93490572D01*
X119293928Y-93490573D01*
X119276600Y-93655435D01*
X119275910Y-93662000D01*
X119294618Y-93839991D01*
X119349923Y-94010203D01*
X119439409Y-94165197D01*
X119443827Y-94170104D01*
X119443828Y-94170105D01*
X119504697Y-94237707D01*
X119559164Y-94298199D01*
X119703955Y-94403396D01*
X119709983Y-94406080D01*
X119709985Y-94406081D01*
X119857037Y-94471552D01*
X119894883Y-94497564D01*
X123422230Y-98024911D01*
X123434616Y-98039323D01*
X123443149Y-98050918D01*
X123443154Y-98050923D01*
X123447492Y-98056818D01*
X123453070Y-98061557D01*
X123453073Y-98061560D01*
X123487768Y-98091035D01*
X123495284Y-98097965D01*
X123500979Y-98103660D01*
X123503861Y-98105940D01*
X123523251Y-98121281D01*
X123526655Y-98124072D01*
X123550856Y-98144632D01*
X123582285Y-98171333D01*
X123588801Y-98174661D01*
X123593850Y-98178028D01*
X123598979Y-98181195D01*
X123604716Y-98185734D01*
X123670875Y-98216655D01*
X123674769Y-98218558D01*
X123739808Y-98251769D01*
X123746916Y-98253508D01*
X123752559Y-98255607D01*
X123758322Y-98257524D01*
X123764950Y-98260622D01*
X123772112Y-98262112D01*
X123772113Y-98262112D01*
X123836412Y-98275486D01*
X123840696Y-98276456D01*
X123911610Y-98293808D01*
X123917212Y-98294156D01*
X123917215Y-98294156D01*
X123922764Y-98294500D01*
X123922762Y-98294536D01*
X123926755Y-98294775D01*
X123930947Y-98295149D01*
X123938115Y-98296640D01*
X124015520Y-98294546D01*
X124018928Y-98294500D01*
X135568930Y-98294500D01*
X135587880Y-98295933D01*
X135602115Y-98298099D01*
X135602119Y-98298099D01*
X135609349Y-98299199D01*
X135616641Y-98298606D01*
X135616644Y-98298606D01*
X135662018Y-98294915D01*
X135672233Y-98294500D01*
X135680293Y-98294500D01*
X135697680Y-98292473D01*
X135708507Y-98291211D01*
X135712882Y-98290778D01*
X135778339Y-98285454D01*
X135778342Y-98285453D01*
X135785637Y-98284860D01*
X135792601Y-98282604D01*
X135798560Y-98281413D01*
X135804415Y-98280029D01*
X135811681Y-98279182D01*
X135880327Y-98254265D01*
X135884455Y-98252848D01*
X135946936Y-98232607D01*
X135946938Y-98232606D01*
X135953899Y-98230351D01*
X135960154Y-98226555D01*
X135965628Y-98224049D01*
X135971058Y-98221330D01*
X135977937Y-98218833D01*
X136008346Y-98198896D01*
X136038976Y-98178814D01*
X136042680Y-98176477D01*
X136105107Y-98138595D01*
X136113484Y-98131197D01*
X136113508Y-98131224D01*
X136116500Y-98128571D01*
X136119733Y-98125868D01*
X136125852Y-98121856D01*
X136179128Y-98065617D01*
X136181506Y-98063175D01*
X141966911Y-92277770D01*
X141981323Y-92265384D01*
X141992918Y-92256851D01*
X141992923Y-92256846D01*
X141998818Y-92252508D01*
X142003557Y-92246930D01*
X142003560Y-92246927D01*
X142033035Y-92212232D01*
X142039965Y-92204716D01*
X142045661Y-92199020D01*
X142047924Y-92196159D01*
X142047929Y-92196154D01*
X142063285Y-92176744D01*
X142066074Y-92173342D01*
X142108596Y-92123291D01*
X142108597Y-92123290D01*
X142113333Y-92117715D01*
X142116661Y-92111198D01*
X142120027Y-92106150D01*
X142123190Y-92101028D01*
X142127735Y-92095284D01*
X142158664Y-92029105D01*
X142160563Y-92025221D01*
X142193769Y-91960192D01*
X142195510Y-91953077D01*
X142197613Y-91947422D01*
X142199522Y-91941683D01*
X142202622Y-91935050D01*
X142217491Y-91863565D01*
X142218461Y-91859282D01*
X142234473Y-91793844D01*
X142235808Y-91788390D01*
X142236500Y-91777236D01*
X142236535Y-91777238D01*
X142236775Y-91773266D01*
X142237152Y-91769045D01*
X142238641Y-91761885D01*
X142236546Y-91684458D01*
X142236500Y-91681050D01*
X142236500Y-88007449D01*
X142256502Y-87939328D01*
X142310158Y-87892835D01*
X142380432Y-87882731D01*
X142442499Y-87910486D01*
X142443962Y-87911949D01*
X142448470Y-87915105D01*
X142452498Y-87918486D01*
X142491820Y-87977599D01*
X142497500Y-88015002D01*
X142497500Y-94375629D01*
X142477498Y-94443750D01*
X142460595Y-94464724D01*
X138152724Y-98772595D01*
X138090412Y-98806621D01*
X138063629Y-98809500D01*
X121954371Y-98809500D01*
X121886250Y-98789498D01*
X121865276Y-98772595D01*
X116513190Y-93420509D01*
X116482452Y-93370350D01*
X116477725Y-93355800D01*
X116464077Y-93313797D01*
X116453034Y-93294669D01*
X116409806Y-93219797D01*
X116374591Y-93158803D01*
X116292150Y-93067242D01*
X116259258Y-93030712D01*
X116259257Y-93030711D01*
X116254836Y-93025801D01*
X116208549Y-92992171D01*
X116115387Y-92924485D01*
X116115386Y-92924484D01*
X116110045Y-92920604D01*
X116104017Y-92917920D01*
X116104015Y-92917919D01*
X115952577Y-92850495D01*
X115952576Y-92850495D01*
X115946546Y-92847810D01*
X115859016Y-92829205D01*
X115777943Y-92811972D01*
X115777939Y-92811972D01*
X115771486Y-92810600D01*
X115592514Y-92810600D01*
X115586061Y-92811972D01*
X115586057Y-92811972D01*
X115504984Y-92829205D01*
X115417454Y-92847810D01*
X115411424Y-92850495D01*
X115411423Y-92850495D01*
X115259985Y-92917919D01*
X115259983Y-92917920D01*
X115253955Y-92920604D01*
X115248614Y-92924484D01*
X115248613Y-92924485D01*
X115155452Y-92992171D01*
X115109164Y-93025801D01*
X115104743Y-93030711D01*
X115104742Y-93030712D01*
X115071851Y-93067242D01*
X114989409Y-93158803D01*
X114954194Y-93219797D01*
X114910967Y-93294669D01*
X114899923Y-93313797D01*
X114844618Y-93484009D01*
X114843928Y-93490572D01*
X114843928Y-93490573D01*
X114826600Y-93655435D01*
X114825910Y-93662000D01*
X112514500Y-93662000D01*
X112514500Y-91147925D01*
X112534502Y-91079804D01*
X112551405Y-91058830D01*
X113918829Y-89691405D01*
X113981141Y-89657380D01*
X114007924Y-89654500D01*
X120207157Y-89654500D01*
X120220764Y-89655237D01*
X120252262Y-89658659D01*
X120252267Y-89658659D01*
X120258388Y-89659324D01*
X120308053Y-89654979D01*
X120319034Y-89654500D01*
X123001157Y-89654500D01*
X123014764Y-89655237D01*
X123046262Y-89658659D01*
X123046267Y-89658659D01*
X123052388Y-89659324D01*
X123078638Y-89657027D01*
X123102388Y-89654950D01*
X123107214Y-89654621D01*
X123109686Y-89654500D01*
X123112769Y-89654500D01*
X123124738Y-89653326D01*
X123155506Y-89650310D01*
X123156819Y-89650188D01*
X123201084Y-89646315D01*
X123249413Y-89642087D01*
X123254532Y-89640600D01*
X123259833Y-89640080D01*
X123348834Y-89613209D01*
X123349967Y-89612874D01*
X123433414Y-89588630D01*
X123433418Y-89588628D01*
X123439336Y-89586909D01*
X123444068Y-89584456D01*
X123449169Y-89582916D01*
X123454612Y-89580022D01*
X123531260Y-89539269D01*
X123532426Y-89538657D01*
X123609453Y-89498729D01*
X123614926Y-89495892D01*
X123619089Y-89492569D01*
X123623796Y-89490066D01*
X123695918Y-89431245D01*
X123696774Y-89430554D01*
X123735973Y-89399262D01*
X123738477Y-89396758D01*
X123739195Y-89396116D01*
X123743528Y-89392415D01*
X123777062Y-89365065D01*
X123806288Y-89329737D01*
X123814277Y-89320958D01*
X126018379Y-87116855D01*
X126028522Y-87107753D01*
X126053218Y-87087897D01*
X126058025Y-87084032D01*
X126090292Y-87045578D01*
X126093472Y-87041931D01*
X126095115Y-87040119D01*
X126097309Y-87037925D01*
X126124642Y-87004651D01*
X126125348Y-87003800D01*
X126181195Y-86937244D01*
X126185154Y-86932526D01*
X126187722Y-86927856D01*
X126191103Y-86923739D01*
X126234977Y-86841914D01*
X126235606Y-86840755D01*
X126277462Y-86764619D01*
X126277465Y-86764611D01*
X126280433Y-86759213D01*
X126282045Y-86754131D01*
X126284562Y-86749437D01*
X126311762Y-86660469D01*
X126312108Y-86659358D01*
X126316549Y-86645361D01*
X126340235Y-86570694D01*
X126340829Y-86565398D01*
X126342387Y-86560302D01*
X126351790Y-86467743D01*
X126351911Y-86466607D01*
X126357500Y-86416773D01*
X126357500Y-86413246D01*
X126357555Y-86412261D01*
X126358002Y-86406581D01*
X126362374Y-86363538D01*
X126358059Y-86317891D01*
X126357500Y-86306033D01*
X126357500Y-72738012D01*
X126377502Y-72669891D01*
X126394560Y-72648761D01*
X126461760Y-72581795D01*
X126465420Y-72578148D01*
X126605613Y-72383049D01*
X126712059Y-72167673D01*
X126736943Y-72085770D01*
X126780395Y-71942756D01*
X126780396Y-71942750D01*
X126781899Y-71937804D01*
X126813257Y-71699614D01*
X126813380Y-71694590D01*
X126814925Y-71631365D01*
X126814925Y-71631361D01*
X126815007Y-71628000D01*
X126795322Y-71388563D01*
X126736794Y-71155556D01*
X126664743Y-70989849D01*
X126643057Y-70939974D01*
X126643055Y-70939971D01*
X126640997Y-70935237D01*
X126553907Y-70800617D01*
X126513310Y-70737863D01*
X126513308Y-70737860D01*
X126510502Y-70733523D01*
X126348814Y-70555830D01*
X126268748Y-70492598D01*
X126164330Y-70410133D01*
X126164325Y-70410130D01*
X126160276Y-70406932D01*
X126155760Y-70404439D01*
X126155757Y-70404437D01*
X125954474Y-70293323D01*
X125954470Y-70293321D01*
X125949950Y-70290826D01*
X125945081Y-70289102D01*
X125945077Y-70289100D01*
X125728360Y-70212356D01*
X125728356Y-70212355D01*
X125723485Y-70210630D01*
X125718392Y-70209723D01*
X125718389Y-70209722D01*
X125492052Y-70169405D01*
X125492046Y-70169404D01*
X125486963Y-70168499D01*
X125399600Y-70167432D01*
X125251907Y-70165627D01*
X125251905Y-70165627D01*
X125246737Y-70165564D01*
X125009256Y-70201904D01*
X124897003Y-70238594D01*
X124785817Y-70274934D01*
X124785811Y-70274937D01*
X124780899Y-70276542D01*
X124776313Y-70278929D01*
X124776309Y-70278931D01*
X124601849Y-70369750D01*
X124567800Y-70387475D01*
X124563657Y-70390585D01*
X124563658Y-70390585D01*
X124417741Y-70500143D01*
X124375680Y-70531723D01*
X124209699Y-70705412D01*
X124074314Y-70903878D01*
X124072140Y-70908561D01*
X124072138Y-70908565D01*
X123975342Y-71117095D01*
X123973163Y-71121790D01*
X123908960Y-71353298D01*
X123883431Y-71592182D01*
X123883728Y-71597335D01*
X123883728Y-71597338D01*
X123896137Y-71812547D01*
X123897260Y-71832029D01*
X123898397Y-71837075D01*
X123898398Y-71837081D01*
X123921097Y-71937804D01*
X123950077Y-72066396D01*
X123952019Y-72071178D01*
X123952020Y-72071182D01*
X124021078Y-72241251D01*
X124040463Y-72288990D01*
X124165991Y-72493832D01*
X124177554Y-72507180D01*
X124309738Y-72659778D01*
X124339220Y-72724363D01*
X124340500Y-72742275D01*
X124340500Y-85890075D01*
X124320498Y-85958196D01*
X124303595Y-85979170D01*
X122682171Y-87600595D01*
X122619859Y-87634620D01*
X122593076Y-87637500D01*
X121530500Y-87637500D01*
X121462379Y-87617498D01*
X121415886Y-87563842D01*
X121404500Y-87511500D01*
X121404500Y-85291970D01*
X121424502Y-85223849D01*
X121432460Y-85213120D01*
X121434096Y-85211489D01*
X121564453Y-85030077D01*
X121581372Y-84995845D01*
X121661136Y-84834453D01*
X121661137Y-84834451D01*
X121663430Y-84829811D01*
X121695900Y-84722940D01*
X121726865Y-84621023D01*
X121726865Y-84621021D01*
X121728370Y-84616069D01*
X121757529Y-84394590D01*
X121759156Y-84328000D01*
X121740852Y-84105361D01*
X121686431Y-83888702D01*
X121597354Y-83683840D01*
X121476014Y-83496277D01*
X121325670Y-83331051D01*
X121321619Y-83327852D01*
X121321615Y-83327848D01*
X121154414Y-83195800D01*
X121154410Y-83195798D01*
X121150359Y-83192598D01*
X120954789Y-83084638D01*
X120949920Y-83082914D01*
X120949916Y-83082912D01*
X120749087Y-83011795D01*
X120749083Y-83011794D01*
X120744212Y-83010069D01*
X120739119Y-83009162D01*
X120739116Y-83009161D01*
X120529373Y-82971800D01*
X120529367Y-82971799D01*
X120524284Y-82970894D01*
X120450452Y-82969992D01*
X120306081Y-82968228D01*
X120306079Y-82968228D01*
X120300911Y-82968165D01*
X120080091Y-83001955D01*
X119867756Y-83071357D01*
X119837443Y-83087137D01*
X119693514Y-83162062D01*
X119669607Y-83174507D01*
X119665474Y-83177610D01*
X119665471Y-83177612D01*
X119495100Y-83305530D01*
X119490965Y-83308635D01*
X119460083Y-83340951D01*
X119340645Y-83465936D01*
X119336629Y-83470138D01*
X119229201Y-83627621D01*
X119174293Y-83672621D01*
X119103768Y-83680792D01*
X119040021Y-83649538D01*
X119019324Y-83625054D01*
X118938822Y-83500617D01*
X118938820Y-83500614D01*
X118936014Y-83496277D01*
X118785670Y-83331051D01*
X118781619Y-83327852D01*
X118781615Y-83327848D01*
X118614414Y-83195800D01*
X118614410Y-83195798D01*
X118610359Y-83192598D01*
X118414789Y-83084638D01*
X118409920Y-83082914D01*
X118409916Y-83082912D01*
X118209087Y-83011795D01*
X118209083Y-83011794D01*
X118204212Y-83010069D01*
X118199119Y-83009162D01*
X118199116Y-83009161D01*
X117989373Y-82971800D01*
X117989367Y-82971799D01*
X117984284Y-82970894D01*
X117910452Y-82969992D01*
X117766081Y-82968228D01*
X117766079Y-82968228D01*
X117760911Y-82968165D01*
X117540091Y-83001955D01*
X117327756Y-83071357D01*
X117297443Y-83087137D01*
X117153514Y-83162062D01*
X117129607Y-83174507D01*
X117125474Y-83177610D01*
X117125471Y-83177612D01*
X116955100Y-83305530D01*
X116950965Y-83308635D01*
X116920083Y-83340951D01*
X116800645Y-83465936D01*
X116796629Y-83470138D01*
X116689201Y-83627621D01*
X116634293Y-83672621D01*
X116563768Y-83680792D01*
X116500021Y-83649538D01*
X116479324Y-83625054D01*
X116398822Y-83500617D01*
X116398820Y-83500614D01*
X116396014Y-83496277D01*
X116245670Y-83331051D01*
X116241619Y-83327852D01*
X116241615Y-83327848D01*
X116074414Y-83195800D01*
X116074410Y-83195798D01*
X116070359Y-83192598D01*
X115874789Y-83084638D01*
X115869920Y-83082914D01*
X115869916Y-83082912D01*
X115669087Y-83011795D01*
X115669083Y-83011794D01*
X115664212Y-83010069D01*
X115659119Y-83009162D01*
X115659116Y-83009161D01*
X115449373Y-82971800D01*
X115449367Y-82971799D01*
X115444284Y-82970894D01*
X115370452Y-82969992D01*
X115226081Y-82968228D01*
X115226079Y-82968228D01*
X115220911Y-82968165D01*
X115000091Y-83001955D01*
X114787756Y-83071357D01*
X114757443Y-83087137D01*
X114613514Y-83162062D01*
X114589607Y-83174507D01*
X114585474Y-83177610D01*
X114585471Y-83177612D01*
X114415100Y-83305530D01*
X114410965Y-83308635D01*
X114380083Y-83340951D01*
X114260645Y-83465936D01*
X114256629Y-83470138D01*
X114149201Y-83627621D01*
X114094293Y-83672621D01*
X114023768Y-83680792D01*
X113960021Y-83649538D01*
X113939324Y-83625054D01*
X113858822Y-83500617D01*
X113858820Y-83500614D01*
X113856014Y-83496277D01*
X113705670Y-83331051D01*
X113701619Y-83327852D01*
X113701615Y-83327848D01*
X113534414Y-83195800D01*
X113534410Y-83195798D01*
X113530359Y-83192598D01*
X113334789Y-83084638D01*
X113329920Y-83082914D01*
X113329916Y-83082912D01*
X113129087Y-83011795D01*
X113129083Y-83011794D01*
X113124212Y-83010069D01*
X113119119Y-83009162D01*
X113119116Y-83009161D01*
X112909373Y-82971800D01*
X112909367Y-82971799D01*
X112904284Y-82970894D01*
X112830452Y-82969992D01*
X112686081Y-82968228D01*
X112686079Y-82968228D01*
X112680911Y-82968165D01*
X112460091Y-83001955D01*
X112247756Y-83071357D01*
X112217443Y-83087137D01*
X112073514Y-83162062D01*
X112049607Y-83174507D01*
X112045474Y-83177610D01*
X112045471Y-83177612D01*
X111875100Y-83305530D01*
X111870965Y-83308635D01*
X111814537Y-83367684D01*
X111790283Y-83393064D01*
X111728759Y-83428494D01*
X111657846Y-83425037D01*
X111600060Y-83383791D01*
X111581207Y-83350243D01*
X111539767Y-83239703D01*
X111536615Y-83231295D01*
X111449261Y-83114739D01*
X111332705Y-83027385D01*
X111196316Y-82976255D01*
X111134134Y-82969500D01*
X109337866Y-82969500D01*
X109275684Y-82976255D01*
X109139295Y-83027385D01*
X109022739Y-83114739D01*
X108935385Y-83231295D01*
X108884255Y-83367684D01*
X108877500Y-83429866D01*
X108877500Y-85226134D01*
X105156500Y-85226134D01*
X105156500Y-71592182D01*
X106782231Y-71592182D01*
X106782528Y-71597335D01*
X106782528Y-71597338D01*
X106794937Y-71812547D01*
X106796060Y-71832029D01*
X106797197Y-71837075D01*
X106797198Y-71837081D01*
X106819897Y-71937804D01*
X106848877Y-72066396D01*
X106850819Y-72071178D01*
X106850820Y-72071182D01*
X106919878Y-72241251D01*
X106939263Y-72288990D01*
X107064791Y-72493832D01*
X107222089Y-72675422D01*
X107226064Y-72678722D01*
X107226067Y-72678725D01*
X107287629Y-72729835D01*
X107406933Y-72828883D01*
X107614359Y-72950093D01*
X107619179Y-72951933D01*
X107619184Y-72951936D01*
X107726549Y-72992934D01*
X107838797Y-73035797D01*
X107843863Y-73036828D01*
X107843864Y-73036828D01*
X107900191Y-73048288D01*
X108074219Y-73083694D01*
X108209227Y-73088645D01*
X108309138Y-73092309D01*
X108309142Y-73092309D01*
X108314302Y-73092498D01*
X108319422Y-73091842D01*
X108319424Y-73091842D01*
X108394989Y-73082162D01*
X108552600Y-73061971D01*
X108557551Y-73060486D01*
X108557554Y-73060485D01*
X108777762Y-72994419D01*
X108777761Y-72994419D01*
X108782712Y-72992934D01*
X108998458Y-72887241D01*
X109040381Y-72857338D01*
X109189842Y-72750728D01*
X109194045Y-72747730D01*
X109200471Y-72741327D01*
X109360560Y-72581795D01*
X109364220Y-72578148D01*
X109504413Y-72383049D01*
X109610859Y-72167673D01*
X109635743Y-72085770D01*
X109679195Y-71942756D01*
X109679196Y-71942750D01*
X109680699Y-71937804D01*
X109712057Y-71699614D01*
X109712180Y-71694590D01*
X109713725Y-71631365D01*
X109713725Y-71631361D01*
X109713807Y-71628000D01*
X109694122Y-71388563D01*
X109635594Y-71155556D01*
X109563543Y-70989849D01*
X109541857Y-70939974D01*
X109541855Y-70939971D01*
X109539797Y-70935237D01*
X109452707Y-70800617D01*
X109412110Y-70737863D01*
X109412108Y-70737860D01*
X109409302Y-70733523D01*
X109247614Y-70555830D01*
X109167548Y-70492598D01*
X109063130Y-70410133D01*
X109063125Y-70410130D01*
X109059076Y-70406932D01*
X109054560Y-70404439D01*
X109054557Y-70404437D01*
X108853274Y-70293323D01*
X108853270Y-70293321D01*
X108848750Y-70290826D01*
X108843881Y-70289102D01*
X108843877Y-70289100D01*
X108627160Y-70212356D01*
X108627156Y-70212355D01*
X108622285Y-70210630D01*
X108617192Y-70209723D01*
X108617189Y-70209722D01*
X108390852Y-70169405D01*
X108390846Y-70169404D01*
X108385763Y-70168499D01*
X108298400Y-70167432D01*
X108150707Y-70165627D01*
X108150705Y-70165627D01*
X108145537Y-70165564D01*
X107908056Y-70201904D01*
X107795803Y-70238594D01*
X107684617Y-70274934D01*
X107684611Y-70274937D01*
X107679699Y-70276542D01*
X107675113Y-70278929D01*
X107675109Y-70278931D01*
X107500649Y-70369750D01*
X107466600Y-70387475D01*
X107462457Y-70390585D01*
X107462458Y-70390585D01*
X107316541Y-70500143D01*
X107274480Y-70531723D01*
X107108499Y-70705412D01*
X106973114Y-70903878D01*
X106970940Y-70908561D01*
X106970938Y-70908565D01*
X106874142Y-71117095D01*
X106871963Y-71121790D01*
X106807760Y-71353298D01*
X106782231Y-71592182D01*
X105156500Y-71592182D01*
X105156500Y-67944500D01*
X105176502Y-67876379D01*
X105230158Y-67829886D01*
X105282500Y-67818500D01*
X129392807Y-67818500D01*
X129460928Y-67838502D01*
G37*
G04 #@! TD.AperFunction*
G04 #@! TA.AperFunction,Conductor*
G36*
X144478254Y-79772502D02*
G01*
X144513345Y-79806228D01*
X144535802Y-79838300D01*
X144697700Y-80000198D01*
X144729771Y-80022655D01*
X144774099Y-80078110D01*
X144783500Y-80125867D01*
X144783500Y-81751829D01*
X144763498Y-81819950D01*
X144746595Y-81840924D01*
X143472837Y-83114682D01*
X143410525Y-83148708D01*
X143372761Y-83151108D01*
X143261476Y-83141372D01*
X143261475Y-83141372D01*
X143256000Y-83140893D01*
X143036629Y-83160085D01*
X142823924Y-83217080D01*
X142793440Y-83231295D01*
X142629334Y-83307818D01*
X142629329Y-83307821D01*
X142624347Y-83310144D01*
X142619840Y-83313300D01*
X142619838Y-83313301D01*
X142448474Y-83433292D01*
X142443962Y-83436451D01*
X142442516Y-83437897D01*
X142378457Y-83465936D01*
X142308352Y-83454723D01*
X142255438Y-83407387D01*
X142236500Y-83340951D01*
X142236500Y-80119566D01*
X142256502Y-80051445D01*
X142310158Y-80004952D01*
X142380432Y-79994848D01*
X142434771Y-80016353D01*
X142593084Y-80127205D01*
X142599251Y-80131523D01*
X142604233Y-80133846D01*
X142604238Y-80133849D01*
X142747660Y-80200727D01*
X142806757Y-80228284D01*
X142812065Y-80229706D01*
X142812067Y-80229707D01*
X143022598Y-80286119D01*
X143022600Y-80286119D01*
X143027913Y-80287543D01*
X143256000Y-80307498D01*
X143484087Y-80287543D01*
X143489400Y-80286119D01*
X143489402Y-80286119D01*
X143699933Y-80229707D01*
X143699935Y-80229706D01*
X143705243Y-80228284D01*
X143764340Y-80200727D01*
X143907762Y-80133849D01*
X143907767Y-80133846D01*
X143912749Y-80131523D01*
X144019193Y-80056990D01*
X144095789Y-80003357D01*
X144095792Y-80003355D01*
X144100300Y-80000198D01*
X144262198Y-79838300D01*
X144284655Y-79806229D01*
X144340110Y-79761901D01*
X144387867Y-79752500D01*
X144410133Y-79752500D01*
X144478254Y-79772502D01*
G37*
G04 #@! TD.AperFunction*
G04 #@! TD*
M02*
