M48
INCH,TZ
T1C0.0118
T2C0.0130
T3C0.0315
T4C0.0394
T5C0.0550
%
G90
G05
T1
X41765Y-45540
X42635Y-45540
T2
X42400Y-47100
X43600Y-27300
X43600Y-29000
X43600Y-30000
X43700Y-42500
X43700Y-44200
X43900Y-37600
X44600Y-27300
X44600Y-29000
X44600Y-30000
X44900Y-32300
X44900Y-34000
X45000Y-45700
X45400Y-40500
X45544Y-36875
X45600Y-27300
X45600Y-29000
X46200Y-38700
X46400Y-35600
X46600Y-27300
X46600Y-29000
X46600Y-30000
X47100Y-44200
X47296Y-36875
X47600Y-27300
X47600Y-29000
X47600Y-30000
X48400Y-43600
X48600Y-27300
X48600Y-29000
X48600Y-30000
X49048Y-36875
X49500Y-41800
X50300Y-33500
X50300Y-35100
X50400Y-45500
X50500Y-31500
X51300Y-43900
X52552Y-43725
X53100Y-32400
X53100Y-35600
X54304Y-43725
X54600Y-36400
X54700Y-46600
X54800Y-28200
X55400Y-37200
X56056Y-43725
X56600Y-46600
X56900Y-38100
X57100Y-42700
X57100Y-44400
X58200Y-30500
X59000Y-27700
X59800Y-41800
X60300Y-32100
X60300Y-34700
X60300Y-36400
X60300Y-38000
X60300Y-39600
X60400Y-44500
X60400Y-45900
T3
X53400Y-27500
X53400Y-28700
X53400Y-29900
X53400Y-31100
X54400Y-32230
X54400Y-33230
X54400Y-34230
X56400Y-27500
X56400Y-28700
X56400Y-29900
X56400Y-31100
X56400Y-32230
X56400Y-33230
X56400Y-34230
X57300Y-27500
X57300Y-28700
X57300Y-29900
X57300Y-31100
X58900Y-32656
X58900Y-33640
X60300Y-27500
X60300Y-28700
X60300Y-29900
X60300Y-31100
T4
X43400Y-33200
X44400Y-33200
X44404Y-47200
X45400Y-33200
X45404Y-47200
X46400Y-33200
X46404Y-47200
X47400Y-33200
X47404Y-47200
X48400Y-33200
X51500Y-27200
X51500Y-28200
X51500Y-29200
X51500Y-30200
X51500Y-31200
X51500Y-32200
X51500Y-33200
X51500Y-34200
X51510Y-46208
X51510Y-47208
X61500Y-27200
X61500Y-28200
X61500Y-29200
X61500Y-30200
X61500Y-31200
X61500Y-32200
X61500Y-33200
X61500Y-34200
X61500Y-35200
X61500Y-36200
X61500Y-37200
X61500Y-38200
X61500Y-39200
X61500Y-40200
X61500Y-41200
X61500Y-42200
X61500Y-43200
X61500Y-44200
X61500Y-45200
X61500Y-46200
X61500Y-47200
T5
X42617Y-28200
X44586Y-28200
X47381Y-28200
X49350Y-28200
T0
M30
