G04 #@! TF.GenerationSoftware,KiCad,Pcbnew,6.0.9+dfsg-1*
G04 #@! TF.CreationDate,2023-03-25T11:37:53-04:00*
G04 #@! TF.ProjectId,fox,666f782e-6b69-4636-9164-5f7063625858,v3.1*
G04 #@! TF.SameCoordinates,Original*
G04 #@! TF.FileFunction,Other,User*
%FSLAX46Y46*%
G04 Gerber Fmt 4.6, Leading zero omitted, Abs format (unit mm)*
G04 Created by KiCad (PCBNEW 6.0.9+dfsg-1) date 2023-03-25 11:37:53*
%MOMM*%
%LPD*%
G01*
G04 APERTURE LIST*
%ADD10C,0.050000*%
%ADD11C,0.152400*%
G04 APERTURE END LIST*
D10*
G04 #@! TO.C,R2*
X154212000Y-71350000D02*
X154212000Y-68350000D01*
X154212000Y-68350000D02*
X144492000Y-68350000D01*
X144492000Y-71350000D02*
X154212000Y-71350000D01*
X144492000Y-68350000D02*
X144492000Y-71350000D01*
G04 #@! TO.C,R3*
X134586000Y-71398000D02*
X134586000Y-74398000D01*
X134586000Y-74398000D02*
X144306000Y-74398000D01*
X144306000Y-74398000D02*
X144306000Y-71398000D01*
X144306000Y-71398000D02*
X134586000Y-71398000D01*
G04 #@! TO.C,R4*
X144492000Y-74398000D02*
X154212000Y-74398000D01*
X144492000Y-71398000D02*
X144492000Y-74398000D01*
X154212000Y-74398000D02*
X154212000Y-71398000D01*
X154212000Y-71398000D02*
X144492000Y-71398000D01*
G04 #@! TO.C,R5*
X134586000Y-74446000D02*
X134586000Y-77446000D01*
X144306000Y-77446000D02*
X144306000Y-74446000D01*
X144306000Y-74446000D02*
X134586000Y-74446000D01*
X134586000Y-77446000D02*
X144306000Y-77446000D01*
G04 #@! TO.C,R7*
X134586000Y-77494000D02*
X134586000Y-80494000D01*
X144306000Y-77494000D02*
X134586000Y-77494000D01*
X144306000Y-80494000D02*
X144306000Y-77494000D01*
X134586000Y-80494000D02*
X144306000Y-80494000D01*
G04 #@! TO.C,R8*
X144492000Y-80494000D02*
X154212000Y-80494000D01*
X154212000Y-77494000D02*
X144492000Y-77494000D01*
X144492000Y-77494000D02*
X144492000Y-80494000D01*
X154212000Y-80494000D02*
X154212000Y-77494000D01*
G04 #@! TO.C,R1*
X134586000Y-68350000D02*
X134586000Y-71350000D01*
X144306000Y-71350000D02*
X144306000Y-68350000D01*
X134586000Y-71350000D02*
X144306000Y-71350000D01*
X144306000Y-68350000D02*
X134586000Y-68350000D01*
G04 #@! TO.C,R6*
X144492000Y-74446000D02*
X144492000Y-77446000D01*
X144492000Y-77446000D02*
X154212000Y-77446000D01*
X154212000Y-74446000D02*
X144492000Y-74446000D01*
X154212000Y-77446000D02*
X154212000Y-74446000D01*
D11*
G04 #@! TO.C,J2*
X128805300Y-67427599D02*
X116892700Y-67427599D01*
X116892700Y-77231999D02*
X128805300Y-77231999D01*
X116892700Y-67427599D02*
X116892700Y-77231999D01*
X128805300Y-77231999D02*
X128805300Y-67427599D01*
D10*
G04 #@! TO.C,C1*
X152356000Y-84195088D02*
G75*
G03*
X152356000Y-84195088I-2750000J0D01*
G01*
G04 #@! TO.C,Conn3*
X132585000Y-121668000D02*
X129035000Y-121668000D01*
X132585000Y-115568000D02*
X132585000Y-121668000D01*
X129035000Y-115568000D02*
X132585000Y-115568000D01*
X129035000Y-121668000D02*
X129035000Y-115568000D01*
G04 #@! TO.C,Conn1*
X132560000Y-67288000D02*
X132560000Y-88638000D01*
X129010000Y-67288000D02*
X132560000Y-67288000D01*
X132560000Y-88638000D02*
X129010000Y-88638000D01*
X129010000Y-88638000D02*
X129010000Y-67288000D01*
G04 #@! TO.C,Q1*
X136166000Y-87954200D02*
X140906000Y-87954200D01*
X140906000Y-80854200D02*
X136166000Y-80854200D01*
X140906000Y-80854200D02*
X140906000Y-87954200D01*
X136166000Y-87954200D02*
X136166000Y-80854200D01*
G04 #@! TO.C,Q2*
X145986000Y-80854200D02*
X145986000Y-87954200D01*
X141246000Y-87954200D02*
X145986000Y-87954200D01*
X141246000Y-87954200D02*
X141246000Y-80854200D01*
X145986000Y-80854200D02*
X141246000Y-80854200D01*
D11*
G04 #@! TO.C,J1*
X104791500Y-77231999D02*
X116704100Y-77231999D01*
X104791500Y-67427599D02*
X104791500Y-77231999D01*
X116704100Y-67427599D02*
X104791500Y-67427599D01*
X116704100Y-77231999D02*
X116704100Y-67427599D01*
D10*
G04 #@! TO.C,Conn2*
X157960000Y-67288000D02*
X157960000Y-121638000D01*
X154410000Y-121638000D02*
X154410000Y-67288000D01*
X154410000Y-67288000D02*
X157960000Y-67288000D01*
X157960000Y-121638000D02*
X154410000Y-121638000D01*
G04 #@! TO.C,RTC1*
X122186000Y-118138000D02*
X122186000Y-121688000D01*
X124686000Y-82578000D02*
X124686000Y-86128000D01*
X108436000Y-82578000D02*
X124686000Y-82578000D01*
X124686000Y-86128000D02*
X108436000Y-86128000D01*
X122186000Y-121688000D02*
X110986000Y-121688000D01*
X110986000Y-118138000D02*
X122186000Y-118138000D01*
X108436000Y-86128000D02*
X108436000Y-82578000D01*
X110986000Y-121688000D02*
X110986000Y-118138000D01*
G04 #@! TD*
M02*
