G04 #@! TF.GenerationSoftware,KiCad,Pcbnew,6.0.9+dfsg-1*
G04 #@! TF.CreationDate,2023-03-25T11:37:52-04:00*
G04 #@! TF.ProjectId,fox,666f782e-6b69-4636-9164-5f7063625858,v3.1*
G04 #@! TF.SameCoordinates,Original*
G04 #@! TF.FileFunction,Soldermask,Bot*
G04 #@! TF.FilePolarity,Negative*
%FSLAX46Y46*%
G04 Gerber Fmt 4.6, Leading zero omitted, Abs format (unit mm)*
G04 Created by KiCad (PCBNEW 6.0.9+dfsg-1) date 2023-03-25 11:37:52*
%MOMM*%
%LPD*%
G01*
G04 APERTURE LIST*
G04 Aperture macros list*
%AMRoundRect*
0 Rectangle with rounded corners*
0 $1 Rounding radius*
0 $2 $3 $4 $5 $6 $7 $8 $9 X,Y pos of 4 corners*
0 Add a 4 corners polygon primitive as box body*
4,1,4,$2,$3,$4,$5,$6,$7,$8,$9,$2,$3,0*
0 Add four circle primitives for the rounded corners*
1,1,$1+$1,$2,$3*
1,1,$1+$1,$4,$5*
1,1,$1+$1,$6,$7*
1,1,$1+$1,$8,$9*
0 Add four rect primitives between the rounded corners*
20,1,$1+$1,$2,$3,$4,$5,0*
20,1,$1+$1,$4,$5,$6,$7,0*
20,1,$1+$1,$6,$7,$8,$9,0*
20,1,$1+$1,$8,$9,$2,$3,0*%
G04 Aperture macros list end*
%ADD10C,1.600000*%
%ADD11O,1.600000X1.600000*%
%ADD12C,1.905000*%
%ADD13R,1.600000X1.600000*%
%ADD14O,1.700000X1.700000*%
%ADD15R,1.700000X1.700000*%
%ADD16R,1.500000X1.500000*%
%ADD17C,1.500000*%
%ADD18RoundRect,0.249600X0.650400X-0.270400X0.650400X0.270400X-0.650400X0.270400X-0.650400X-0.270400X0*%
%ADD19RoundRect,0.152500X0.470000X-0.152500X0.470000X0.152500X-0.470000X0.152500X-0.470000X-0.152500X0*%
%ADD20C,0.610000*%
%ADD21R,2.000000X4.000000*%
%ADD22R,4.000000X2.000000*%
G04 APERTURE END LIST*
D10*
G04 #@! TO.C,R2*
X153162000Y-69850000D03*
D11*
X145542000Y-69850000D03*
G04 #@! TD*
D10*
G04 #@! TO.C,R3*
X143256000Y-72898000D03*
D11*
X135636000Y-72898000D03*
G04 #@! TD*
D10*
G04 #@! TO.C,R4*
X145542000Y-72898000D03*
D11*
X153162000Y-72898000D03*
G04 #@! TD*
D10*
G04 #@! TO.C,R5*
X143256000Y-75946000D03*
D11*
X135636000Y-75946000D03*
G04 #@! TD*
D10*
G04 #@! TO.C,R7*
X143256000Y-78994000D03*
D11*
X135636000Y-78994000D03*
G04 #@! TD*
D10*
G04 #@! TO.C,R8*
X145542000Y-78994000D03*
D11*
X153162000Y-78994000D03*
G04 #@! TD*
D10*
G04 #@! TO.C,R1*
X143256000Y-69850000D03*
D11*
X135636000Y-69850000D03*
G04 #@! TD*
D10*
G04 #@! TO.C,R6*
X145542000Y-75946000D03*
D11*
X153162000Y-75946000D03*
G04 #@! TD*
D12*
G04 #@! TO.C,J2*
X125349000Y-71628000D03*
X120349000Y-71628000D03*
G04 #@! TD*
D13*
G04 #@! TO.C,C1*
X149606000Y-82945088D03*
D10*
X149606000Y-85445088D03*
G04 #@! TD*
D14*
G04 #@! TO.C,Conn3*
X130835000Y-117368000D03*
X130835000Y-119908000D03*
G04 #@! TD*
D15*
G04 #@! TO.C,Conn1*
X130810000Y-69088000D03*
D14*
X130810000Y-71628000D03*
X130810000Y-74168000D03*
X130810000Y-76708000D03*
X130810000Y-79248000D03*
X130810000Y-81788000D03*
X130810000Y-84328000D03*
X130810000Y-86868000D03*
G04 #@! TD*
D16*
G04 #@! TO.C,Q1*
X138176000Y-81864200D03*
D17*
X138176000Y-84404200D03*
X138176000Y-86944200D03*
G04 #@! TD*
D16*
G04 #@! TO.C,Q2*
X143256000Y-81864200D03*
D17*
X143256000Y-84404200D03*
X143256000Y-86944200D03*
G04 #@! TD*
D12*
G04 #@! TO.C,J1*
X113247800Y-71628000D03*
X108247800Y-71628000D03*
G04 #@! TD*
D15*
G04 #@! TO.C,Conn2*
X156210000Y-69088000D03*
D14*
X156210000Y-71628000D03*
X156210000Y-74168000D03*
X156210000Y-76708000D03*
X156210000Y-79248000D03*
X156210000Y-81788000D03*
X156210000Y-84328000D03*
X156210000Y-86868000D03*
X156210000Y-89408000D03*
X156210000Y-91948000D03*
X156210000Y-94488000D03*
X156210000Y-97028000D03*
X156210000Y-99568000D03*
X156210000Y-102108000D03*
X156210000Y-104648000D03*
X156210000Y-107188000D03*
X156210000Y-109728000D03*
X156210000Y-112268000D03*
X156210000Y-114808000D03*
X156210000Y-117348000D03*
X156210000Y-119888000D03*
G04 #@! TD*
G04 #@! TO.C,RTC1*
X120406000Y-119888000D03*
X117866000Y-119888000D03*
D15*
X112786000Y-119888000D03*
D14*
X115326000Y-119888000D03*
D15*
X110236000Y-84328000D03*
D14*
X112776000Y-84328000D03*
X115316000Y-84328000D03*
X117856000Y-84328000D03*
X120396000Y-84328000D03*
X122936000Y-84328000D03*
G04 #@! TD*
D18*
G04 #@! TO.C,FL1*
X107188000Y-117296000D03*
D19*
X106260500Y-115671000D03*
D20*
X106083000Y-115671000D03*
D18*
X107188000Y-114046000D03*
D20*
X108293000Y-115671000D03*
D19*
X108115500Y-115671000D03*
G04 #@! TD*
D21*
G04 #@! TO.C,U1*
X124582000Y-93662000D03*
X120132000Y-93662000D03*
X115682000Y-93662000D03*
D22*
X111506000Y-95504000D03*
X111506000Y-100076000D03*
X111506000Y-104648000D03*
D21*
X115682000Y-111062000D03*
X133482000Y-111062000D03*
X137932000Y-111062000D03*
X142382000Y-111062000D03*
G04 #@! TD*
M02*
